<svg width="60" height="50" viewBox="0 0 60 50" fill="none" xmlns="http://www.w3.org/2000/svg">
<path fill-rule="evenodd" clip-rule="evenodd" d="M5.56339 0.779313C5.06618 0.777221 4.58863 0.973092 4.23535 1.32298C3.88253 1.67328 3.68332 2.14956 3.68122 2.64673V10.0111C3.67913 10.5108 3.87709 10.9909 4.23033 11.3445C4.58357 11.6977 5.06361 11.8953 5.56329 11.8936H12.9276C13.4253 11.8915 13.9011 11.6923 14.2514 11.339C14.6017 10.9862 14.7976 10.5083 14.7955 10.011V8.21303H24.4157V8.75503C12.5936 11.3265 3.75002 21.8265 3.75002 34.4265V35.2577L1.88209 35.2581C1.38236 35.256 0.902738 35.4539 0.549124 35.8072C0.195884 36.1604 -0.00207291 36.6405 1.63718e-05 37.1401V44.5049C0.00210898 45.0021 0.201327 45.478 0.554566 45.8284C0.907387 46.1787 1.38492 46.3745 1.88217 46.3724H9.24321C9.73874 46.3716 10.2134 46.1745 10.5641 45.8246C10.9148 45.4747 11.1123 45.0001 11.1144 44.505V37.1402C11.1165 36.6426 10.9202 36.1642 10.5691 35.811C10.218 35.4582 9.74124 35.259 9.2432 35.2581H7.49998V34.4269C7.49998 23.6987 14.8673 14.8198 24.8507 12.4948L35.1305 12.4726C45.1589 14.7661 52.5659 23.6669 52.5659 34.4273V35.2585L50.7675 35.2589C50.2678 35.2568 49.7877 35.4547 49.4345 35.808C49.0814 36.1612 48.8834 36.6413 48.8854 37.1409V44.5057C48.8871 45.0029 49.0867 45.4788 49.4396 45.8292C49.7928 46.1795 50.2703 46.3753 50.7676 46.3732H58.132C58.6271 46.3711 59.1009 46.174 59.4508 45.8241C59.8007 45.4743 59.9978 45.0005 59.9999 44.5057V37.141C60.002 36.6437 59.8061 36.1662 59.4558 35.8129C59.1055 35.4601 58.6296 35.2609 58.1321 35.2588H56.3194V34.4276C56.3194 21.7837 47.4145 11.2505 35.5294 8.72724V8.21454H45.1497V10.0125C45.1476 10.5097 45.3439 10.9873 45.6942 11.3401C46.0441 11.6929 46.5203 11.8926 47.0176 11.8947H54.382C54.8821 11.8963 55.3617 11.6988 55.7153 11.3451C56.0686 10.9919 56.2665 10.5119 56.2645 10.0122V2.64782C56.2624 2.15061 56.0631 1.67433 55.7099 1.32407C55.3571 0.974185 54.8795 0.778307 54.3819 0.780407H47.0175C46.5228 0.782081 46.049 0.979628 45.6991 1.32951C45.3492 1.6794 45.1517 2.15317 45.15 2.64791V4.46055H35.5298V2.64791C35.5277 2.1507 35.328 1.67442 34.9752 1.32416C34.622 0.974271 34.1444 0.778393 33.6472 0.780493H26.2974C25.8002 0.7784 25.3222 0.974271 24.9694 1.32416C24.6161 1.67446 24.4169 2.15074 24.4148 2.64791V4.46055H14.7946V2.64791C14.7925 2.15321 14.5953 1.67943 14.2454 1.32951C13.8956 0.979628 13.4218 0.782078 12.9266 0.780407L5.56339 0.779313ZM11.0457 4.52931H7.43132V8.14367H11.0457V4.52931ZM31.78 4.52931H28.1656V8.14367H31.78V4.52931ZM52.5109 4.52931H48.8999V8.14367H52.5109V4.52931ZM5.46042 39.0079H3.74989L3.75036 42.6222H7.36097V39.0079H5.77557C5.67052 39.0167 5.56547 39.0167 5.46042 39.0079ZM54.277 39.0079H52.636L52.6363 42.6222H56.2507V39.0079H54.5917C54.4871 39.0167 54.3816 39.0167 54.277 39.0079Z" fill="#21CC9E"/>
<path d="M20.9411 39.5353V47.3538C20.9427 47.8511 21.1428 48.3273 21.4956 48.6776C21.8488 49.0275 22.3264 49.2234 22.8236 49.2213H37.1904C37.686 49.2204 38.1606 49.0233 38.5113 48.6734C38.862 48.3235 39.06 47.8493 39.0616 47.3538V39.5353L20.9411 39.5353Z" fill="#8676FF"/>
<path d="M24.8508 12.4949L16.3183 21.0018C16.0705 21.2479 15.8964 21.5584 15.8156 21.8979C15.7348 22.2377 15.7503 22.593 15.8604 22.9245L20.2001 35.7817H39.7997L44.1503 22.9245C44.2612 22.5935 44.2771 22.2381 44.1967 21.8983C44.1168 21.5589 43.9431 21.2483 43.6962 21.0018L35.1529 12.4949C35.1529 12.4949 32.0495 11.4995 30 11.4998C27.9519 11.5 24.8508 12.4949 24.8508 12.4949Z" fill="#8676FF"/>
</svg>
