<svg width="58" height="60" viewBox="0 0 58 60" fill="none" xmlns="http://www.w3.org/2000/svg">
<path d="M2.07123 43.1081L7.57976 37.5996L13.1852 43.2046L18.0921 48.1121L28.2241 58.244L27.3415 59.1266C26.3626 60.1055 24.839 60.282 23.6619 59.5532L14.0185 53.5812L13.281 54.3186C11.5289 56.0708 8.68855 56.0708 6.93656 54.3186L2.07116 49.4532C0.319029 47.7005 0.319029 44.8602 2.07116 43.1082L2.07123 43.1081Z" fill="#21CC9E"/>
<path d="M27.2604 51.2289L24.3361 48.0956C25.9679 46.5721 26.6106 45.0647 26.2993 43.4864C26.2229 43.1003 26.0973 42.75 25.9593 42.4495C24.5439 43.4501 23.1525 44.559 21.8275 45.7864L10.6177 34.5765C18.3899 26.1876 21.4312 15.1216 22.0917 12.3827L19.8956 10.1866L22.926 7.15625L49.3764 33.6053L46.346 36.6357L44.0221 34.3118C42.0828 34.779 35.9699 36.4406 29.5862 40.1301C30.9257 42.6884 31.7244 47.0616 27.2602 51.2284L27.2604 51.2289Z" fill="#8676FF"/>
<path d="M57.2426 21.7275H49.0387V26.0135H57.2426V21.7275Z" fill="#21CC9E"/>
<path d="M48.412 6.125L42.611 11.926L45.6413 14.9564L51.4423 9.15537L48.412 6.125Z" fill="#21CC9E"/>
<path d="M35.5132 0H31.2272V8.20388H35.5132V0Z" fill="#21CC9E"/>
</svg>
