<svg width="60" height="60" viewBox="0 0 60 60" fill="none" xmlns="http://www.w3.org/2000/svg">
<path d="M58.9606 8.69299C59.5275 8.69299 59.9999 8.22055 59.9999 7.65361V1.03938C59.9999 0.472445 59.5275 0 58.9606 0H52.3463C51.7794 0 51.3069 0.472445 51.3069 1.03938V2.5512H8.69293V1.03938C8.69293 0.472445 8.22049 0 7.65355 0H1.03932C0.472384 0 -6.10352e-05 0.472445 -6.10352e-05 1.03938V7.65361C-6.10352e-05 8.22055 0.472384 8.69299 1.03932 8.69299H2.55114V51.307H1.03932C0.472384 51.307 -6.10352e-05 51.7795 -6.10352e-05 52.3464V58.9606C-6.10352e-05 59.5276 0.472384 60 1.03932 60H7.65355C8.22049 60 8.69293 59.5276 8.69293 58.9606V57.4488H51.3069V58.9606C51.3069 59.5276 51.7794 60 52.3463 60H58.9606C59.5275 60 59.9999 59.5276 59.9999 58.9606V52.3464C59.9999 51.7795 59.5275 51.307 58.9606 51.307H57.4487V8.69299H58.9606ZM53.8581 51.307H52.3463C51.7794 51.307 51.3069 51.7795 51.3069 52.3464V53.8582H8.69293V52.3464C8.69293 51.7795 8.22049 51.307 7.65355 51.307H6.14173V8.69299H7.65355C8.22049 8.69299 8.69293 8.22055 8.69293 7.65361V6.14179H51.3069V7.65361C51.3069 8.22055 51.7794 8.69299 52.3463 8.69299H53.8581V51.307Z" fill="#21CC9E"/>
<path d="M46.1566 10.961H13.8414C13.2745 10.961 12.7548 11.4335 12.7548 12.0476V20.6933C12.7548 21.2602 13.2273 21.7799 13.8414 21.7799H18.8965C19.4634 21.7799 19.9831 21.3074 19.9831 20.6933V18.1893H26.4083V41.8116H23.8571C23.2902 41.8116 22.7706 42.284 22.7706 42.8981V47.9533C22.7706 48.5202 23.243 49.0398 23.8571 49.0398H36.1407C36.7076 49.0398 37.2273 48.5674 37.2273 47.9533V42.8981C37.2273 42.3312 36.7548 41.8116 36.1407 41.8116H33.5895V18.1893H40.0147V20.7405C40.0147 21.3074 40.4872 21.8271 41.1013 21.8271H46.1564C46.7234 21.8271 47.243 21.3546 47.243 20.7405V12.0475C47.243 11.4333 46.7705 10.9609 46.1564 10.9609L46.1566 10.961Z" fill="#8676FF"/>
</svg>
