<svg width="56" height="60" viewBox="0 0 56 60" fill="none" xmlns="http://www.w3.org/2000/svg">
<path d="M47.101 23.1155C47.0997 23.5154 47.1638 23.9123 47.2907 24.2917C47.6692 25.418 47.4791 26.6583 46.7814 27.62C46.0833 28.5818 44.9635 29.1466 43.7749 29.1363C42.99 29.1329 42.2248 29.3807 41.5912 29.8438C40.9576 30.3065 40.4885 30.9602 40.2531 31.7088C39.8933 32.8393 39.0098 33.7267 37.8806 34.0911C36.7519 34.456 35.5162 34.253 34.563 33.5463C33.9294 33.0764 33.162 32.823 32.3733 32.823C31.5846 32.823 30.8169 33.0764 30.1836 33.5463C29.2305 34.253 27.9948 34.456 26.8656 34.0911C25.7369 33.7267 24.8533 32.8393 24.4932 31.7088C24.2569 30.9564 23.7839 30.2997 23.1457 29.8366C22.5069 29.373 21.7361 29.1278 20.947 29.1363C19.7584 29.1466 18.6386 28.5818 17.9405 27.6201C17.2428 26.6583 17.0526 25.418 17.4312 24.2918C17.6824 23.5441 17.6863 22.7354 17.4427 21.9855C17.1988 21.2352 16.7202 20.5837 16.0777 20.1265C15.1104 19.4369 14.5366 18.3223 14.5366 17.1346C14.5366 15.9469 15.1104 14.8321 16.0777 14.1426C16.7203 13.6854 17.1988 13.0334 17.4427 12.2836C17.6863 11.5338 17.6824 10.725 17.4312 9.97735C17.0527 8.85067 17.2428 7.61079 17.9405 6.64905C18.6386 5.68731 19.7584 5.12206 20.947 5.13278C21.7361 5.14132 22.5069 4.89565 23.1457 4.43252C23.784 3.96938 24.2569 3.31273 24.4932 2.5599C24.8533 1.4294 25.7369 0.54247 26.8656 0.17803C27.9948 -0.186836 29.2304 0.0160999 30.1836 0.722776C30.8168 1.19232 31.5846 1.44611 32.3733 1.44611C33.162 1.44611 33.9294 1.19232 34.563 0.722776C35.5162 0.0161108 36.7519 -0.186836 37.8806 0.17803C39.0098 0.54247 39.8933 1.4294 40.2531 2.5599C40.4898 3.31271 40.9623 3.96943 41.601 4.43252C42.2398 4.89566 43.0106 5.14133 43.7997 5.13278C44.9878 5.1221 46.1077 5.68734 46.8058 6.64905C47.5039 7.61079 47.6936 8.85067 47.3151 9.97735C47.0643 10.725 47.06 11.5338 47.3039 12.2836C47.5475 13.0335 48.026 13.6854 48.669 14.1426C49.6358 14.8322 50.2101 15.9469 50.2101 17.1346C50.2101 18.3223 49.6358 19.437 48.669 20.1265C47.6923 20.8097 47.1079 21.924 47.101 23.1155ZM37.4353 13.1867C37.0521 12.8039 36.5321 12.5886 35.9899 12.5886C35.4478 12.5886 34.9282 12.8039 34.5445 13.1867L30.9979 16.7333L30.1528 15.9002C29.6303 15.4165 28.8937 15.2388 28.208 15.4319C27.5227 15.625 26.9869 16.1608 26.7938 16.8466C26.6007 17.5323 26.778 18.2689 27.2616 18.7914L29.5521 21.0818C29.9357 21.4651 30.4561 21.68 30.9979 21.68C31.5401 21.68 32.06 21.4651 32.4437 21.0818L37.4357 16.0898C37.8228 15.7057 38.0399 15.1836 38.0399 14.6385C38.0399 14.0933 37.8224 13.5708 37.4353 13.1867Z" fill="#21CC9E"/>
<path d="M30.7714 56.6439H15.7158L12.3653 60.0005L0.397461 48.3629L8.96638 39.7881C10.7061 38.0603 12.8971 36.8571 15.2888 36.3154C17.6801 35.7741 20.1757 35.9159 22.4906 36.7256L24.3708 37.3869H35.9657C36.9553 37.3865 37.9033 37.7856 38.595 38.4935C39.2867 39.2014 39.6636 40.1581 39.6405 41.1476C39.5871 42.1183 39.1581 43.0296 38.445 43.6901C37.7319 44.3507 36.7903 44.7083 35.8187 44.6878H28.8606C28.0774 44.6878 27.4425 45.3227 27.4425 46.1058C27.4425 46.889 28.0774 47.5239 28.8606 47.5239H35.8187C37.5162 47.5311 39.1517 46.8851 40.3864 45.7201C41.6212 44.555 42.3608 42.9596 42.4522 41.2643V41.1784L48.8832 33.9388C49.5373 33.1821 50.4576 32.7061 51.4526 32.6092C52.4481 32.5122 53.4427 32.8019 54.2305 33.418C55.0171 34.0699 55.5072 35.0111 55.5905 36.0293C55.6734 37.0474 55.3419 38.0557 54.6715 38.8265L41.8089 53.5266C40.0923 55.4791 37.6164 56.5955 35.0165 56.5891L30.7714 56.6439Z" fill="#8676FF"/>
</svg>
