<svg width="100" height="26" viewBox="0 0 100 26" fill="none" xmlns="http://www.w3.org/2000/svg">
<path d="M26.5034 9.4252H36.6201V11.3085H32.6367V21.9253H30.4534V11.3085H26.4867L26.5034 9.4252ZM36.1868 12.8752H38.0535V14.6252H38.0868C38.1535 14.3752 38.2701 14.1419 38.4368 13.9086C38.6035 13.6752 38.8035 13.4586 39.0535 13.2752C39.2868 13.0752 39.5535 12.9252 39.8535 12.8086C40.1368 12.6919 40.4368 12.6252 40.7368 12.6252C40.9702 12.6252 41.1368 12.6419 41.2202 12.6419C41.3035 12.6586 41.4035 12.6752 41.4868 12.6752V14.5919C41.3535 14.5586 41.2035 14.5419 41.0535 14.5252C40.9035 14.5086 40.7702 14.4919 40.6202 14.4919C40.2868 14.4919 39.9701 14.5586 39.6701 14.6919C39.3701 14.8252 39.1201 15.0252 38.8868 15.2752C38.6701 15.5419 38.4868 15.8586 38.3535 16.2419C38.2201 16.6252 38.1535 17.0753 38.1535 17.5753V21.8753H36.1534L36.1868 12.8752ZM48.6869 21.9253V20.6586H48.6536C48.4036 21.1253 48.0369 21.4753 47.5536 21.7586C47.0702 22.042 46.5702 22.1753 46.0702 22.1753C44.8869 22.1753 44.0202 21.892 43.4869 21.2919C42.9535 20.7086 42.6868 19.8086 42.6868 18.6253V12.8752H44.6869V18.4253C44.6869 19.2253 44.8369 19.7919 45.1535 20.1086C45.4535 20.4419 45.8869 20.6086 46.4369 20.6086C46.8535 20.6086 47.2036 20.5419 47.4869 20.4086C47.7702 20.2753 48.0036 20.1086 48.1702 19.8919C48.3536 19.6753 48.4702 19.4086 48.5536 19.1086C48.6369 18.8086 48.6702 18.4753 48.6702 18.1253V12.8752H50.6703V21.9253H48.6869ZM54.0536 19.0253C54.1203 19.6086 54.337 20.0086 54.7203 20.2586C55.1036 20.4919 55.5703 20.6086 56.1036 20.6086C56.287 20.6086 56.5036 20.5919 56.737 20.5586C56.9703 20.5253 57.2036 20.4753 57.4036 20.3919C57.6203 20.3086 57.787 20.1919 57.9203 20.0253C58.0537 19.8586 58.1203 19.6586 58.1037 19.4086C58.087 19.1586 58.0037 18.9419 57.8203 18.7753C57.637 18.6086 57.4203 18.4919 57.1536 18.3753C56.887 18.2753 56.5703 18.1919 56.2203 18.1253C55.8703 18.0586 55.5203 17.9753 55.1536 17.8919C54.787 17.8086 54.4203 17.7086 54.0703 17.5919C53.7203 17.4753 53.4203 17.3253 53.1369 17.1086C52.8703 16.9086 52.6369 16.6586 52.4869 16.3419C52.3203 16.0252 52.2369 15.6586 52.2369 15.1919C52.2369 14.6919 52.3536 14.2919 52.6036 13.9586C52.8369 13.6252 53.1536 13.3586 53.5203 13.1586C53.8869 12.9586 54.3036 12.8086 54.7536 12.7252C55.2036 12.6419 55.637 12.6086 56.037 12.6086C56.5036 12.6086 56.9536 12.6586 57.3703 12.7586C57.787 12.8586 58.187 13.0086 58.5203 13.2419C58.8703 13.4586 59.1537 13.7586 59.3703 14.1086C59.6037 14.4586 59.737 14.8919 59.8037 15.3919H57.7203C57.6203 14.9086 57.4036 14.5919 57.0703 14.4252C56.7203 14.2586 56.337 14.1752 55.887 14.1752C55.7536 14.1752 55.5703 14.1919 55.387 14.2086C55.187 14.2419 55.0203 14.2752 54.837 14.3419C54.6703 14.4086 54.5203 14.5086 54.4036 14.6252C54.287 14.7419 54.2203 14.9086 54.2203 15.1086C54.2203 15.3586 54.3036 15.5419 54.4703 15.6919C54.637 15.8419 54.8536 15.9586 55.137 16.0752C55.4036 16.1752 55.7203 16.2586 56.0703 16.3252C56.4203 16.3919 56.787 16.4752 57.1536 16.5586C57.5203 16.6419 57.8703 16.7419 58.2203 16.8586C58.5703 16.9752 58.887 17.1253 59.1537 17.3419C59.4203 17.5419 59.6537 17.7919 59.8203 18.0919C59.987 18.3919 60.0703 18.7753 60.0703 19.2086C60.0703 19.7419 59.9537 20.1919 59.7037 20.5753C59.4537 20.9419 59.137 21.2586 58.7537 21.4919C58.3703 21.7253 57.9203 21.892 57.4536 22.0086C56.9703 22.1086 56.5036 22.1753 56.037 22.1753C55.4703 22.1753 54.937 22.1086 54.4536 21.9753C53.9703 21.842 53.5369 21.642 53.1869 21.3919C52.8369 21.1253 52.5536 20.8086 52.3536 20.4086C52.1536 20.0253 52.0369 19.5586 52.0203 19.0086H54.0369V19.0253H54.0536ZM60.637 12.8752H62.1537V10.1419H64.1537V12.8586H65.9537V14.3419H64.1537V19.1753C64.1537 19.3919 64.1704 19.5586 64.187 19.7253C64.2037 19.8753 64.2537 20.0086 64.3037 20.1086C64.3704 20.2086 64.4704 20.2919 64.5871 20.3419C64.7204 20.3919 64.8871 20.4253 65.1204 20.4253C65.2537 20.4253 65.4037 20.4253 65.5371 20.4086C65.6704 20.3919 65.8204 20.3753 65.9537 20.3419V21.892C65.7371 21.9253 65.5204 21.942 65.3037 21.9586C65.0871 21.992 64.8871 21.992 64.6537 21.992C64.1204 21.992 63.7037 21.942 63.387 21.842C63.0704 21.742 62.8204 21.5919 62.637 21.4086C62.4537 21.2086 62.337 20.9753 62.2704 20.6919C62.2037 20.4086 62.1704 20.0586 62.1537 19.6919V14.3586H60.637V12.8419V12.8752ZM67.3537 12.8752H69.2371V14.1086H69.2704C69.5538 13.5752 69.9371 13.2086 70.4371 12.9752C70.9371 12.7419 71.4705 12.6252 72.0705 12.6252C72.7871 12.6252 73.4038 12.7419 73.9371 13.0086C74.4705 13.2586 74.9038 13.5919 75.2538 14.0419C75.6038 14.4752 75.8705 14.9919 76.0372 15.5752C76.2038 16.1586 76.3038 16.7919 76.3038 17.4419C76.3038 18.0586 76.2205 18.6419 76.0705 19.2086C75.9038 19.7753 75.6705 20.2919 75.3538 20.7253C75.0371 21.1586 74.6372 21.5086 74.1371 21.7753C73.6371 22.042 73.0705 22.1753 72.4038 22.1753C72.1205 22.1753 71.8204 22.142 71.5371 22.092C71.2538 22.042 70.9704 21.9586 70.7038 21.842C70.4371 21.7253 70.1871 21.5753 69.9704 21.3919C69.7371 21.2086 69.5538 20.9919 69.4038 20.7586H69.3704V25.2753H67.3704V12.8752H67.3537ZM74.3372 17.4086C74.3372 17.0086 74.2871 16.6086 74.1705 16.2252C74.0705 15.8419 73.9038 15.5086 73.6871 15.2086C73.4705 14.9086 73.2038 14.6752 72.9038 14.4919C72.5871 14.3086 72.2205 14.2252 71.8205 14.2252C70.9871 14.2252 70.3538 14.5086 69.9204 15.0919C69.5038 15.6752 69.2871 16.4586 69.2871 17.4253C69.2871 17.8919 69.3371 18.3086 69.4538 18.6919C69.5704 19.0753 69.7204 19.4086 69.9538 19.6919C70.1704 19.9753 70.4371 20.1919 70.7538 20.3586C71.0704 20.5253 71.4204 20.6086 71.8371 20.6086C72.3038 20.6086 72.6705 20.5086 72.9871 20.3253C73.3038 20.1419 73.5538 19.8919 73.7705 19.6086C73.9705 19.3086 74.1205 18.9753 74.2038 18.5919C74.2871 18.1919 74.3372 17.8086 74.3372 17.4086ZM77.8538 9.4252H79.8539V11.3085H77.8538V9.4252ZM77.8538 12.8752H79.8539V21.9253H77.8538V12.8752ZM81.6372 9.4252H83.6372V21.9253H81.6372V9.4252ZM89.7373 22.1753C89.0206 22.1753 88.3706 22.0586 87.8039 21.8086C87.2373 21.5586 86.7706 21.2419 86.3706 20.8253C85.9873 20.4086 85.6873 19.8919 85.4873 19.3086C85.2872 18.7253 85.1706 18.0753 85.1706 17.3919C85.1706 16.7086 85.2706 16.0752 85.4873 15.4919C85.6873 14.9086 85.9873 14.4086 86.3706 13.9752C86.7539 13.5586 87.2373 13.2252 87.8039 12.9919C88.3706 12.7586 89.0206 12.6252 89.7373 12.6252C90.454 12.6252 91.104 12.7419 91.6706 12.9919C92.2373 13.2252 92.704 13.5586 93.104 13.9752C93.4873 14.3919 93.7873 14.9086 93.9873 15.4919C94.1873 16.0752 94.304 16.7086 94.304 17.3919C94.304 18.0919 94.204 18.7253 93.9873 19.3086C93.7707 19.8919 93.4873 20.3919 93.104 20.8253C92.7206 21.2419 92.2373 21.5753 91.6706 21.8086C91.104 22.042 90.4706 22.1753 89.7373 22.1753ZM89.7373 20.5919C90.1706 20.5919 90.5706 20.4919 90.8873 20.3086C91.2206 20.1253 91.4706 19.8753 91.6873 19.5753C91.904 19.2753 92.054 18.9253 92.154 18.5586C92.254 18.1753 92.304 17.7919 92.304 17.3919C92.304 17.0086 92.254 16.6252 92.154 16.2419C92.054 15.8586 91.904 15.5252 91.6873 15.2252C91.4706 14.9252 91.204 14.6919 90.8873 14.5086C90.554 14.3252 90.1706 14.2252 89.7373 14.2252C89.304 14.2252 88.904 14.3252 88.5873 14.5086C88.2539 14.6919 88.0039 14.9419 87.7873 15.2252C87.5706 15.5252 87.4206 15.8586 87.3206 16.2419C87.2206 16.6252 87.1706 17.0086 87.1706 17.3919C87.1706 17.7919 87.2206 18.1753 87.3206 18.5586C87.4206 18.9419 87.5706 19.2753 87.7873 19.5753C88.0039 19.8753 88.2706 20.1253 88.5873 20.3086C88.9206 20.5086 89.304 20.5919 89.7373 20.5919ZM94.904 12.8752H96.4207V10.1419H98.4207V12.8586H100.221V14.3419H98.4207V19.1753C98.4207 19.3919 98.4374 19.5586 98.454 19.7253C98.4707 19.8753 98.5207 20.0086 98.5707 20.1086C98.6374 20.2086 98.7374 20.2919 98.854 20.3419C98.9874 20.3919 99.154 20.4253 99.3874 20.4253C99.5207 20.4253 99.6707 20.4253 99.8041 20.4086C99.9374 20.3919 100.087 20.3753 100.221 20.3419V21.892C100.004 21.9253 99.7874 21.942 99.5707 21.9586C99.354 21.992 99.1541 21.992 98.9207 21.992C98.3874 21.992 97.9707 21.942 97.654 21.842C97.3374 21.742 97.0874 21.5919 96.904 21.4086C96.7207 21.2086 96.604 20.9753 96.5374 20.6919C96.4707 20.4086 96.4374 20.0586 96.4207 19.6919V14.3586H94.904V12.8419V12.8752Z" fill="#9FA2AA"/>
<path d="M24.1707 9.42467H15.0207L12.204 0.724609L9.37068 9.42467L0.220642 9.40801L7.62067 14.7914L4.78733 23.4914L12.1874 18.1081L19.5874 23.4914L16.7707 14.7914L24.1707 9.42467Z" fill="#9FA2AA"/>
</svg>
