<svg width="100" height="30" viewBox="0 0 100 30" fill="none" xmlns="http://www.w3.org/2000/svg">
<path d="M-6.10352e-05 5.9093H3.48684V13.6562H10.8409V5.9093H14.3323V24.9255H10.8409V17.0159H3.48684V24.9255H-6.10352e-05V5.9093Z" fill="#9FA2AA"/>
<path d="M25.3791 18.7314C25.3791 20.3232 24.0822 21.6186 22.4907 21.6186C20.8986 21.6186 19.6025 20.3232 19.6025 18.7314V10.5442H16.2957V18.7314C16.2957 22.147 19.0749 24.9252 22.4907 24.9252C25.9057 24.9252 28.6848 22.147 28.6848 18.7314V10.5442H25.3791V18.7314Z" fill="#9FA2AA"/>
<path d="M37.9158 10.6399C36.2755 10.6399 35.1305 11.1159 34.0248 12.2013V5.9088H30.7072V17.5705C30.7072 21.9356 33.8633 24.925 37.409 24.925C41.3508 24.925 44.8045 21.8823 44.8045 17.7827C44.8045 13.735 41.6197 10.6399 37.9158 10.6399ZM37.9982 21.8559C35.7503 21.8559 34.0312 19.9785 34.0312 17.7827C34.0312 15.5864 35.7503 13.7084 37.9982 13.7084C39.903 13.7084 41.623 15.5864 41.623 17.7827C41.623 19.9785 39.903 21.8559 37.9982 21.8559Z" fill="#9FA2AA"/>
<path d="M50.3767 11.4753C50.3767 9.80763 51.4878 9.27889 52.7043 9.27889C53.6837 9.27889 54.9796 10.0196 55.8254 10.9192L57.994 8.37982C56.9102 6.92506 54.715 5.91954 52.916 5.91954C49.318 5.91954 46.7255 8.00949 46.7255 11.4753C46.7255 17.9034 54.6355 15.8658 54.6355 19.4644C54.6355 20.5742 53.5512 21.5539 52.3086 21.5539C50.3503 21.5539 49.7151 20.6015 48.816 19.596L46.4083 22.0823C47.9435 23.9607 49.8475 24.9135 52.1228 24.9135C55.5351 24.9135 58.2864 22.7972 58.2864 19.49C58.2864 12.3478 50.3767 14.5702 50.3767 11.4753Z" fill="#9FA2AA"/>
<path d="M67.0192 10.4529C63.4739 10.4529 60.3175 13.4406 60.3175 17.8066V29.4984H63.6348V23.176C64.7407 24.2606 65.8851 24.7374 67.526 24.7374C71.2297 24.7374 74.4149 21.6427 74.4149 17.5951C74.4149 13.4949 70.9602 10.4529 67.0192 10.4529ZM67.6087 21.6693C65.3609 21.6693 63.6417 19.7893 63.6417 17.5951C63.6417 15.3989 65.3609 13.5208 67.6087 13.5208C69.513 13.5208 71.2332 15.3989 71.2332 17.5951C71.2332 19.7893 69.513 21.6693 67.6087 21.6693Z" fill="#9FA2AA"/>
<path d="M98.8349 21.8562C96.8782 21.8562 96.3227 21.0101 96.3227 19.7134V13.9732H99.3642V11.0637H96.3227V7.22755L92.9641 8.73505V20.4277C92.9641 23.4173 95.0267 24.9253 97.8559 24.9253C98.2792 24.9253 98.8619 24.898 99.1797 24.8197L99.9998 21.8043C99.6295 21.8299 99.2064 21.8562 98.8349 21.8562Z" fill="#9FA2AA"/>
<path d="M90.0861 14.1421C89.4501 13.0479 88.5555 12.1707 87.4371 11.5103C86.6013 11.0238 85.7347 10.715 84.7581 10.5824V7.10561C85.7347 6.69094 86.3408 5.77312 86.3408 4.70236C86.3408 3.24291 85.1704 2.06024 83.7121 2.06024C82.2527 2.06024 81.0618 3.24291 81.0618 4.70236C81.0618 5.77312 81.6329 6.69094 82.6095 7.10561V10.5839C81.8282 10.6968 81.018 10.9404 80.2781 11.3146C78.7669 10.1669 73.8116 6.40167 70.9128 4.20253C70.9816 3.95467 71.0345 3.69919 71.0345 3.42964C71.0345 1.81315 69.7254 0.50293 68.1084 0.50293C66.4913 0.50293 65.1828 1.81315 65.1828 3.42964C65.1828 5.04594 66.4927 6.35655 68.1097 6.35655C68.6613 6.35655 69.1715 6.19521 69.6118 5.92997L70.2235 6.39405L78.6294 12.4506C78.1851 12.8586 77.7712 13.3227 77.4401 13.8435C76.7692 14.905 76.3592 16.0731 76.3592 17.3472V17.613C76.3592 18.5074 76.5291 19.3518 76.8186 20.145C77.0735 20.8376 77.4462 21.4673 77.9077 22.0367L75.1179 24.8333C74.8704 24.7421 74.6105 24.6921 74.3392 24.6921C73.7352 24.6921 73.1688 24.928 72.7416 25.3544C72.3141 25.782 72.0799 26.3498 72.0799 26.9541C72.0801 27.5582 72.3154 28.126 72.7428 28.5532C73.17 28.9806 73.7378 29.2161 74.3421 29.2161C74.9464 29.2161 75.5144 28.9806 75.942 28.5532C76.3686 28.126 76.6041 27.558 76.6041 26.9541C76.6041 26.7203 76.568 26.4922 76.5 26.2753L79.3836 23.3914C79.7789 23.6645 80.2059 23.8944 80.6649 24.0926C81.5702 24.484 82.5695 24.7225 83.6631 24.7225H83.8635C85.0725 24.7225 86.213 24.4385 87.2851 23.8576C88.4149 23.2437 89.2991 22.4043 89.9671 21.3325C90.6386 20.2579 91.0084 19.0705 91.0084 17.7642V17.6989C91.0084 16.4139 90.7109 15.2283 90.0861 14.1421ZM86.5628 20.1918C85.7802 21.0616 84.8805 21.5974 83.8635 21.5974H83.6959C83.115 21.5974 82.5468 21.4368 81.9905 21.1448C81.3635 20.8233 80.887 20.3647 80.4969 19.784C80.0938 19.214 79.875 18.5918 79.875 17.932V17.7316C79.875 17.0829 79.9994 16.4678 80.3131 15.8869C80.6485 15.2519 81.1014 14.7582 81.7038 14.3656C82.2952 13.9757 82.9269 13.7845 83.6305 13.7845H83.6959C84.3338 13.7845 84.9378 13.9103 85.5077 14.2019C86.0884 14.5128 86.5628 14.9377 86.9306 15.4965C87.2879 16.0555 87.5004 16.6584 87.5687 17.3153C87.5795 17.4518 87.585 17.5917 87.585 17.7253C87.585 18.6168 87.2443 19.4424 86.5628 20.1918Z" fill="#9FA2AA"/>
</svg>
