<svg width="100" height="14" viewBox="0 0 100 14" fill="none" xmlns="http://www.w3.org/2000/svg">
<path d="M60.9986 9.81608H56.9603L56.0039 12.7916H53.8785L57.9168 1.10196H60.1484L64.1867 12.7916H62.0613L60.9986 9.81608ZM58.9794 3.22736C58.9794 3.22736 58.7669 4.39632 58.4481 5.03395L57.3854 8.11579H60.4672L59.4045 5.03395C59.2982 4.39632 58.9794 3.22736 58.9794 3.22736Z" fill="#9FA2AA"/>
<path d="M67.2686 1.20887H70.9881C72.2634 1.20887 72.7947 1.31513 73.3261 1.52765C74.4951 2.05902 75.239 3.12172 75.239 4.71575C75.239 6.09727 74.4951 7.37252 73.3261 7.90381C73.3261 7.90381 73.5387 8.11637 73.7512 8.43518L76.0892 12.7922H73.7512L71.4132 8.43518H69.3941V12.7922H67.2686V1.20887ZM71.3069 6.62867C72.476 6.62867 73.1136 5.99104 73.1136 4.82205C73.1136 3.75938 72.6885 3.01549 70.9881 3.01549H69.3941V6.62867H71.3069Z" fill="#9FA2AA"/>
<path d="M79.7028 1.20887H83.6348C87.248 1.20887 89.5859 3.33424 89.5859 7.05371C89.5859 10.7731 87.248 12.8985 83.6348 12.8985H79.7028C79.7028 12.7923 79.7028 1.20887 79.7028 1.20887ZM83.5285 10.9857C85.8665 10.9857 87.3543 9.60422 87.3543 6.94745C87.3543 4.39697 85.8665 2.9092 83.5285 2.9092H81.8282V10.8794H83.5285V10.9857Z" fill="#9FA2AA"/>
<path d="M93.3049 9.81647C93.3049 9.81647 94.5802 11.0917 96.1742 11.0917C97.0244 11.0917 97.8745 10.6667 97.8745 9.71022C97.8745 7.58485 92.3485 8.00992 92.3485 4.39671C92.3485 2.48387 94.0488 0.996094 96.2804 0.996094C98.6184 0.996094 99.7874 2.27135 99.7874 2.27135L98.831 3.97164C98.831 3.97164 97.7683 2.90894 96.2805 2.90894C95.3241 2.90894 94.5802 3.44031 94.5802 4.29045C94.5802 6.3096 99.9999 5.88449 99.9999 9.60396C99.9999 11.4105 98.6184 13.0046 96.1742 13.0046C93.6237 13.0046 92.136 11.4105 92.136 11.4105L93.3049 9.81647Z" fill="#9FA2AA"/>
<path d="M37.1937 1.20825L35.2809 9.28475C35.1746 9.92238 35.0683 10.56 35.0683 10.56C35.0683 10.56 35.0684 10.0286 34.8558 9.28475L32.8367 1.20825H31.0301L28.9047 9.28475C28.6922 9.92238 28.6922 10.56 28.6922 10.56C28.6922 10.56 28.6922 10.0286 28.4797 9.28475L27.0981 3.22736L26.0354 7.58442L27.3107 12.7916H29.7549L31.5615 5.88409C31.774 5.14021 31.8803 4.39632 31.8803 4.39632C31.8803 4.39632 31.9866 5.14021 32.1991 5.88409L34.0057 12.7916H36.4499L39.4254 1.10196L37.1937 1.20825Z" fill="#9FA2AA"/>
<path d="M50.3718 1.20825L48.459 9.28475C48.3527 9.92238 48.2465 10.56 48.2465 10.56C48.2465 10.56 48.2465 10.0286 48.0339 9.28475L46.0148 1.20825H44.2082L42.0828 9.28475C41.8703 9.92238 41.8703 10.56 41.8703 10.56C41.8703 10.56 41.8703 10.0286 41.6577 9.28475L40.2762 3.22736L39.2136 7.58442L40.4888 12.7916H42.933L44.7396 5.88409C44.9521 5.14021 45.0584 4.39632 45.0584 4.39632C45.0584 4.39632 45.1647 5.14021 45.3772 5.88409L47.1838 12.7916H49.5217L52.4973 1.10196H50.3719C50.3718 1.20825 50.3718 1.20825 50.3718 1.20825Z" fill="#9FA2AA"/>
<path d="M7.12003 9.81524H3.08178L2.12538 12.7908H-6.10352e-05L4.03819 1.10112H6.26985L10.3081 12.7908H8.07647L7.12003 9.81524ZM5.10092 3.22652C5.10092 3.22652 4.88837 4.39548 4.56956 5.0331L3.50686 8.11494H6.5887L5.526 5.0331C5.31344 4.39548 5.10092 3.22652 5.10092 3.22652Z" fill="#9FA2AA"/>
<path d="M21.7848 9.28537C21.9973 9.923 21.9973 10.5606 21.9973 10.5606C21.9973 10.5606 21.9973 10.0293 22.2098 9.28537L24.1227 1.20887H26.2481L23.2725 12.8985H20.8284L19.0218 5.99101C18.8093 5.24712 18.703 4.50323 18.703 4.50323C18.703 4.50323 18.5967 5.24712 18.3842 5.99101L16.5776 12.8985H14.1334L11.2641 1.20887H13.3895L15.1961 9.28537C15.3024 9.923 15.4086 10.5606 15.4086 10.5606C15.4086 10.5606 15.4086 10.0293 15.6211 9.28537L17.7465 1.20887H19.7656L21.7848 9.28537Z" fill="#9FA2AA"/>
</svg>
