<svg width="100" height="30" viewBox="0 0 100 30" fill="none" xmlns="http://www.w3.org/2000/svg">
<path d="M30.6436 0.772461H26.067V29.227H30.6436V0.772461Z" fill="#9FA2AA"/>
<path d="M46.6619 20.1733C46.6619 24.4514 42.9808 24.8494 41.9858 24.8494C39.2996 24.8494 38.7026 22.2626 38.7026 20.6707V9.92567H34.126V20.7703C34.126 23.4565 35.0215 25.6453 36.4143 27.2371C37.7077 28.5305 39.6975 29.227 41.8863 29.227C43.4781 29.227 45.5674 28.829 46.5624 27.6351V29.227H51.139V9.92564H46.5624V20.1733H46.6619Z" fill="#9FA2AA"/>
<path d="M60.1922 3.06088H55.6155V9.92577H52.2327V14.5024H55.6155V29.2271H60.1922V14.5024H63.5749V9.92577H60.1922V3.06088Z" fill="#9FA2AA"/>
<path d="M77.9017 23.4563C76.9068 24.3517 75.6134 24.8492 74.2206 24.8492C71.0369 24.8492 68.7486 22.5609 68.7486 19.2777C68.7486 15.9945 71.0369 13.8057 74.2206 13.8057C75.6134 13.8057 76.9068 14.2037 77.9017 15.1985L78.5981 15.7955L81.5828 12.8108L80.8864 12.1143C78.9961 10.5225 76.7078 9.52754 74.2205 9.52754C68.5496 9.42802 64.371 13.5072 64.371 19.2777C64.371 24.8491 68.6491 29.1273 74.2205 29.1273C76.8073 29.1273 79.195 28.2319 81.0853 26.5405L81.7818 25.8441L78.5981 22.6604L77.9017 23.4563Z" fill="#9FA2AA"/>
<path d="M97.9996 11.617C96.7062 10.3237 95.1143 9.62721 93.025 9.62721C91.4332 9.62721 89.7418 10.0252 88.5479 11.2191V0.772461H83.9712V29.227H88.5479V18.4819C88.5479 14.2038 91.7316 13.8058 92.7265 13.8058C95.4128 13.8058 95.4128 16.3926 95.4128 17.9845V29.227H99.9894V17.885C100.089 15.3977 99.492 13.1094 97.9996 11.617Z" fill="#9FA2AA"/>
<path d="M74.022 22.6606C75.8352 22.6606 77.3052 21.1907 77.3052 19.3774C77.3052 17.5641 75.8352 16.0942 74.022 16.0942C72.2087 16.0942 70.7387 17.5641 70.7387 19.3774C70.7387 21.1907 72.2087 22.6606 74.022 22.6606Z" fill="#9FA2AA"/>
<path d="M19.7987 22.0635C18.1074 23.7548 15.6201 24.7498 13.2323 24.7498C8.05874 24.7498 4.37759 20.7701 4.37759 15.2981C4.37759 9.82607 8.05877 5.84641 13.1328 5.84641C15.5206 5.84641 17.809 6.84132 19.6993 8.53268L20.3957 9.22911L23.3804 6.2444L22.684 5.54796C20.0972 2.96115 16.7145 1.5683 13.1328 1.5683C5.57147 1.66779 -6.10352e-05 7.53776 -6.10352e-05 15.3976C-6.10352e-05 23.2574 5.57147 29.1274 13.1328 29.1274C16.814 29.1274 20.2962 27.7345 22.684 25.1477L23.3804 24.4513L20.3957 21.2676L19.7987 22.0635Z" fill="#9FA2AA"/>
</svg>
