<svg width="100" height="28" viewBox="0 0 100 28" fill="none" xmlns="http://www.w3.org/2000/svg">
<path d="M20.6647 4.67032C21.1128 4.1462 21.4008 3.59806 21.4008 3.01792C21.4008 2.04569 20.5966 1.42954 19.6124 1.42954C18.6962 1.42954 17.936 2.02168 17.792 3.01792L16.4516 2.69385C16.7077 1.06145 18.04 0.0332031 19.6044 0.0332031C21.3608 0.0332031 22.7572 1.22949 22.7572 3.00592C22.7572 3.97816 22.309 4.86237 21.6609 5.61055C20.3646 7.11891 20.3326 7.17493 18.9322 8.82733H22.7892V10.2117H16.5717V9.61952L20.6647 4.67032Z" fill="#9FA2AA"/>
<path d="M16.5959 16.9974L16.6079 11.9442H27.5706C27.6826 12.6483 27.7386 13.3765 27.7386 14.1007C27.7386 21.7465 21.5131 27.968 13.8713 27.968C6.22543 27.98 -6.10352e-05 21.7585 -6.10352e-05 14.1127C-6.10352e-05 6.46686 6.22543 0.245364 13.8673 0.245364V5.13854C8.91808 5.13854 4.89311 9.1635 4.89311 14.1127C4.89311 19.0619 8.91808 23.0868 13.8673 23.0868C17.8002 23.0868 21.165 20.5382 22.3733 16.9974H16.5959ZM37.9971 13.5085C37.9971 9.85567 38.2211 8.36731 38.8253 7.4751C39.5854 6.35883 41.0498 5.74268 42.9623 5.74268C44.6507 5.74268 46.059 6.2348 46.8072 7.11901C47.3753 7.74316 47.6114 8.61537 47.6114 9.9917V10.8199H44.5146C44.4706 9.25553 44.4266 8.97546 44.2025 8.63938C43.9585 8.25929 43.4864 8.02323 42.9182 8.02323C42.3021 8.02323 41.802 8.2913 41.5899 8.69539C41.2778 9.31954 41.1858 10.4718 41.1858 13.4885C41.1858 15.9811 41.2979 17.4335 41.4979 18.0496C41.6779 18.5618 42.1901 18.8538 42.8742 18.8538C44.0825 18.8538 44.4146 18.2377 44.5186 15.9371H47.6034C47.5794 17.8816 47.4673 18.6738 47.0552 19.434C46.4871 20.5302 44.9867 21.1424 42.8302 21.1424C40.3176 21.1424 38.7972 20.2142 38.2931 18.4257C38.0971 17.7016 37.9971 15.9451 37.9971 13.5085ZM49.3878 5.97874H54.1809C56.4815 5.97874 56.8976 6.06676 57.7018 6.71492C58.418 7.30706 58.774 8.27929 58.774 9.71964C58.774 10.9279 58.53 11.8561 58.0579 12.4803C57.6538 13.0284 57.1657 13.2645 56.1134 13.4965C58.1139 13.7406 58.8061 14.6808 58.8301 17.1974C58.8301 17.6015 58.8741 18.4257 58.9181 19.454C58.9621 20.1701 58.9861 20.3022 59.1621 20.9303H55.8653C55.7293 19.9581 55.7293 19.9341 55.7293 18.1016C55.7293 16.3012 55.5933 15.409 55.2372 15.0049C54.9931 14.7368 54.7251 14.6688 53.9289 14.6688H52.4325V20.9383H49.3798L49.3878 5.97874ZM53.6888 12.4603C55.0852 12.4603 55.5893 11.8682 55.5893 10.3038C55.5893 9.47558 55.3652 8.80742 54.9971 8.48334C54.7291 8.25929 54.529 8.21528 53.7688 8.21528H52.4165V12.4603H53.6888ZM60.7185 13.4325C60.7185 9.94369 60.8745 8.7394 61.4787 7.68715C62.1949 6.40284 63.6792 5.74268 65.7917 5.74268C68.1283 5.74268 69.7127 6.61489 70.3288 8.25529C70.6409 9.05948 70.7769 10.6359 70.7769 13.5085C70.7769 16.6493 70.6209 18.1337 70.1848 18.9859C69.4686 20.4062 67.9402 21.1664 65.8157 21.1664C63.6912 21.1664 62.2269 20.5182 61.4907 19.2219C60.8866 18.1817 60.7185 16.9414 60.7185 13.4325ZM65.7477 18.8618C66.6759 18.8618 67.2241 18.4137 67.4121 17.5335C67.5241 16.9654 67.6122 15.0209 67.6122 12.9284C67.6122 10.6839 67.5001 9.36355 67.2761 8.82742C67.076 8.33531 66.4919 8.02323 65.7557 8.02323C64.9075 8.02323 64.3154 8.40332 64.1473 9.05148C63.9913 9.67563 63.9033 11.232 63.9033 13.6126C63.9033 15.589 63.9713 16.8854 64.0833 17.5135C64.2514 18.4137 64.7955 18.8618 65.7477 18.8618ZM71.7812 5.97874H74.8979L75.9142 11.432C76.2702 13.4085 76.3623 15.209 76.5303 18.6498C77.1545 14.0687 77.3585 12.7924 77.6466 11.432L78.8309 5.97874H82.3277L83.444 11.432C83.9561 13.9246 84.0681 15.6131 84.2281 18.6498C84.4282 16.1132 84.6323 14.2567 85.1204 11.432L86.0926 5.97874H88.8293L85.8125 20.9423H82.4277L81.0154 13.9887C80.7713 12.7804 80.4673 9.95569 80.3992 8.42333C79.9511 11.7881 79.9311 12.2682 79.571 13.9887L78.1187 20.9383H74.6539L71.7812 5.97874ZM90.1656 5.97874H94.3466C96.7712 5.97874 97.5114 6.11477 98.2675 6.6509C99.2158 7.34307 99.6879 8.55136 99.8879 10.9199C99.9559 11.8481 99.9999 13.0324 99.9999 14.0847C99.9999 16.7773 99.8119 18.0976 99.3758 18.9779C98.7516 20.2422 97.3073 20.9543 95.4548 20.9543H90.1816L90.1656 5.97874ZM94.6267 18.5818C95.6989 18.5818 96.291 18.3377 96.5031 17.7776C96.7271 17.1854 96.7952 16.3252 96.7952 13.8766C96.7952 11.204 96.7071 10.0317 96.4591 9.29554C96.235 8.67138 95.6309 8.3233 94.7027 8.3233H93.3063V18.5818H94.6267ZM33.46 0.0853251H32.4637V27.7H33.46V0.0853251Z" fill="#9FA2AA"/>
</svg>
