<svg width="131" height="40" viewBox="0 0 131 40" fill="none" xmlns="http://www.w3.org/2000/svg">
<path d="M54.8 30H58.52V15.36H62.984V12.12H50.264V15.36H54.8V30ZM67.1885 30.288C68.8205 30.288 70.1325 29.784 71.1245 28.776V30H74.4845V21.36C74.4845 20.416 74.2445 19.592 73.7645 18.888C73.3005 18.168 72.6445 17.608 71.7965 17.208C70.9485 16.808 69.9725 16.608 68.8685 16.608C67.4765 16.608 66.2525 16.928 65.1965 17.568C64.1565 18.208 63.4445 19.072 63.0605 20.16L65.9405 21.528C66.1645 20.952 66.5165 20.488 66.9965 20.136C67.4925 19.784 68.0605 19.608 68.7005 19.608C69.3725 19.608 69.9005 19.776 70.2845 20.112C70.6845 20.448 70.8845 20.864 70.8845 21.36V21.72L67.2605 22.296C65.6925 22.552 64.5245 23.04 63.7565 23.76C62.9885 24.48 62.6045 25.392 62.6045 26.496C62.6045 27.68 63.0125 28.608 63.8285 29.28C64.6605 29.952 65.7805 30.288 67.1885 30.288ZM66.3245 26.376C66.3245 25.944 66.4605 25.616 66.7325 25.392C67.0045 25.152 67.3965 24.984 67.9085 24.888L70.8845 24.36V24.768C70.8845 25.568 70.6125 26.248 70.0685 26.808C69.5245 27.368 68.8045 27.648 67.9085 27.648C67.4605 27.648 67.0845 27.536 66.7805 27.312C66.4765 27.088 66.3245 26.776 66.3245 26.376ZM77.1247 30H80.7247V11.832H77.1247V30ZM89.6711 30.288C91.0151 30.288 92.1911 30 93.1991 29.424C94.2071 28.832 94.9111 28.056 95.3111 27.096L92.4311 25.728C92.1751 26.176 91.8151 26.528 91.3511 26.784C90.9031 27.04 90.3591 27.168 89.7191 27.168C88.8391 27.168 88.1191 26.92 87.5591 26.424C86.9991 25.928 86.6711 25.272 86.5751 24.456H95.7431C95.8071 24.28 95.8471 24.072 95.8631 23.832C95.8951 23.576 95.9111 23.32 95.9111 23.064C95.9111 21.848 95.6551 20.76 95.1431 19.8C94.6471 18.824 93.9191 18.048 92.9591 17.472C91.9991 16.896 90.8231 16.608 89.4311 16.608C88.1831 16.608 87.0631 16.904 86.0711 17.496C85.0791 18.088 84.2871 18.896 83.6951 19.92C83.1191 20.944 82.8311 22.112 82.8311 23.424C82.8311 24.688 83.1111 25.84 83.6711 26.88C84.2311 27.92 85.0231 28.752 86.0471 29.376C87.0711 29.984 88.2791 30.288 89.6711 30.288ZM89.4311 19.488C90.1671 19.488 90.7751 19.704 91.2551 20.136C91.7351 20.568 92.0151 21.128 92.0951 21.816H86.6471C86.8231 21.064 87.1511 20.488 87.6311 20.088C88.1271 19.688 88.7271 19.488 89.4311 19.488ZM98.0309 30H101.631V22.344C101.631 21.592 101.855 20.992 102.303 20.544C102.751 20.08 103.327 19.848 104.031 19.848C104.735 19.848 105.311 20.08 105.759 20.544C106.207 20.992 106.431 21.592 106.431 22.344V30H110.031V21.576C110.031 20.584 109.823 19.72 109.407 18.984C108.991 18.232 108.407 17.648 107.655 17.232C106.919 16.816 106.055 16.608 105.063 16.608C104.231 16.608 103.495 16.768 102.855 17.088C102.215 17.392 101.727 17.864 101.391 18.504V16.896H98.0309V30ZM118.71 30.144C118.982 30.144 119.27 30.128 119.574 30.096C119.878 30.064 120.15 30.032 120.39 30V26.952C120.054 27 119.774 27.024 119.55 27.024C118.062 27.024 117.318 26.36 117.318 25.032V20.016H120.39V16.896H117.318V13.92H113.718V14.88C113.718 16.224 113.022 16.896 111.63 16.896H111.51V20.016H113.718V25.272C113.718 26.808 114.15 28.008 115.014 28.872C115.894 29.72 117.126 30.144 118.71 30.144Z" fill="#0C0039"/>
<path d="M124.276 30H127.876V26.4H124.276V30Z" fill="#21CC9E"/>
<path d="M13.3408 33.334V33.8506C13.3426 35.4809 13.991 37.0439 15.1438 38.1967C16.2966 39.3494 17.8596 39.9979 19.4899 39.9996H20.523C22.1533 39.9979 23.7163 39.3494 24.8691 38.1967C26.0219 37.0439 26.6703 35.4809 26.6721 33.8506V33.334H13.3408Z" fill="#21CC9E"/>
<path d="M9.78803 25.9738C8.03053 24.3504 6.68999 22.3275 5.87983 20.0763C5.06968 17.8251 4.81377 15.4119 5.13375 13.0408C5.45015 10.6366 6.34479 8.34503 7.74099 6.36239C9.1372 4.37976 10.9933 2.76524 13.1503 1.65722C15.3073 0.549194 17.7007 -0.0192868 20.1256 0.000499356C22.5504 0.0202855 24.9343 0.627748 27.0729 1.77082C29.2115 2.91389 31.041 4.55849 32.4047 6.56364C33.7684 8.5688 34.6255 10.8747 34.9026 13.2837C35.1797 15.6928 34.8686 18.1331 33.9958 20.3955C33.1231 22.6579 31.7148 24.675 29.8916 26.2738C28.7176 27.2831 27.806 28.5623 27.2353 30.0015H21.6728V18.0301C22.6442 17.6866 23.4857 17.0515 24.0823 16.2115C24.6789 15.3715 25.0014 14.3677 25.0057 13.3375C25.0057 12.8955 24.8301 12.4716 24.5176 12.1591C24.2051 11.8466 23.7812 11.671 23.3393 11.671C22.8973 11.671 22.4734 11.8466 22.1609 12.1591C21.8484 12.4716 21.6728 12.8955 21.6728 13.3375C21.6728 13.7794 21.4973 14.2033 21.1848 14.5158C20.8723 14.8283 20.4484 15.0039 20.0064 15.0039C19.5645 15.0039 19.1406 14.8283 18.8281 14.5158C18.5156 14.2033 18.34 13.7794 18.34 13.3375C18.34 12.8955 18.1645 12.4716 17.852 12.1591C17.5394 11.8466 17.1156 11.671 16.6736 11.671C16.2317 11.671 15.8078 11.8466 15.4953 12.1591C15.1828 12.4716 15.0072 12.8955 15.0072 13.3375C15.0115 14.3677 15.334 15.3715 15.9306 16.2115C16.5271 17.0515 17.3687 17.6866 18.34 18.0301V30.0015H12.6126C11.9755 28.4694 11.0115 27.0948 9.78803 25.9738Z" fill="#8676FF"/>
</svg>
