<svg width="654" height="410" viewBox="0 0 654 410" fill="none" xmlns="http://www.w3.org/2000/svg">
<rect width="654" height="410" rx="10" fill="white"/>
<rect x="284.5" y="250.5" width="339" height="139" rx="3.5" stroke="#E3D3FF"/>
<path d="M333.864 332.84C322.381 322.704 304.503 326.167 297 329.166V381H611V341.71C605.4 325.365 591.524 293.157 580.823 295.083C567.448 297.49 553.257 341.836 537.108 344.244C520.959 346.651 518.023 302.305 500.081 301.418C482.138 300.531 472.84 340.189 455.713 338.162C438.585 336.135 425.536 336.768 414.281 350.072C403.026 363.376 394.055 352.479 390.14 340.189C386.225 327.899 372.849 315.862 364.694 327.265C356.538 338.669 348.219 345.511 333.864 332.84Z" fill="url(#paint0_linear_1_1700)"/>
<path d="M297 329.166C304.503 326.167 322.381 322.704 333.864 332.84C348.219 345.511 356.538 338.669 364.694 327.265C372.849 315.862 386.225 327.899 390.14 340.189C394.055 352.479 403.026 363.376 414.281 350.072C425.536 336.768 438.585 336.135 455.713 338.162C472.84 340.189 482.138 300.531 500.081 301.418C518.023 302.305 520.959 346.651 537.108 344.244C553.257 341.836 567.448 297.49 580.823 295.083C591.524 293.157 605.4 325.365 611 341.71" stroke="#8676FF" stroke-width="1.5" stroke-linecap="round" stroke-linejoin="round"/>
<circle cx="565" cy="312" r="4" fill="white" stroke="#8676FF" stroke-width="1.50139"/>
<circle cx="462" cy="336" r="4" fill="white" stroke="#8676FF" stroke-width="1.50139"/>
<circle cx="374" cy="324" r="4" fill="white" stroke="#8676FF" stroke-width="1.50139"/>
<rect x="10" y="10" width="634" height="42" rx="6" fill="#F9F9F9"/>
<circle cx="37" cy="31" r="7" fill="#FF4443"/>
<circle cx="57" cy="31" r="7" fill="#FFD700"/>
<circle cx="77" cy="31" r="7" fill="#00D544"/>
<circle r="9" transform="matrix(-1 0 0 1 625 31)" fill="#8676FF"/>
<rect width="45" height="4" rx="2" transform="matrix(-1 0 0 1 596 29)" fill="#8676FF"/>
<path d="M263.898 70H84C81.7909 70 80 71.7909 80 74V386C80 388.209 81.7909 390 84 390H263.898C266.107 390 267.898 388.209 267.898 386V74C267.898 71.7909 266.107 70 263.898 70Z" stroke="#E3D3FF"/>
<rect x="100" y="89" width="33.9429" height="33.9429" rx="16.9714" fill="#8676FF"/>
<rect x="146.429" y="95.2735" width="54.551" height="9.69796" rx="4.84898" fill="#E3D3FF"/>
<rect x="146.429" y="111.82" width="54.551" height="4.84898" rx="2.42449" fill="#E3D3FF"/>
<rect x="99.9999" y="135" width="33.9429" height="33.9429" rx="16.9714" fill="#E3D3FF"/>
<rect x="146.429" y="141.273" width="29.0939" height="9.69796" rx="4.84898" fill="#E3D3FF"/>
<rect x="146.429" y="157.82" width="77.5837" height="4.84898" rx="2.42449" fill="#E3D3FF"/>
<rect x="100" y="227" width="33.9429" height="33.9429" rx="16.9714" fill="#E3D3FF"/>
<rect x="146.429" y="233.273" width="49.0939" height="9.69796" rx="4.84898" fill="#E3D3FF"/>
<rect x="146.429" y="249.82" width="74.5551" height="4.84898" rx="2.42449" fill="#E3D3FF"/>
<rect x="100" y="273" width="33.9429" height="33.9429" rx="16.9714" fill="#E3D3FF"/>
<rect x="146.429" y="279.273" width="53.3388" height="9.69796" rx="4.84898" fill="#E3D3FF"/>
<rect x="146.429" y="295.82" width="60.6122" height="4.84898" rx="2.42449" fill="#E3D3FF"/>
<rect x="99.9999" y="181" width="33.9429" height="33.9429" rx="16.9714" fill="#E3D3FF"/>
<rect x="146.429" y="187.273" width="66.6735" height="9.69796" rx="4.84898" fill="#E3D3FF"/>
<rect x="146.429" y="203.82" width="48.4898" height="4.84898" rx="2.42449" fill="#E3D3FF"/>
<rect x="138.188" y="351.967" width="72.7347" height="4.84898" rx="2.42449" fill="#8676FF"/>
<rect x="105.457" y="343.481" width="138.196" height="21.8204" rx="10.9102" stroke="#E3D3FF" stroke-width="2"/>
<path d="M0 70H56C58.2091 70 60 71.7909 60 74V410H10C4.47715 410 0 405.523 0 400V70Z" fill="#F9F9F9"/>
<path fill-rule="evenodd" clip-rule="evenodd" d="M35.159 198.102C35.159 196.268 33.9052 195.533 32.1001 195.533H27.8608C26.1111 195.533 24.7998 196.218 24.7998 197.98V207.796C24.7998 208.28 25.3204 208.584 25.7422 208.348L29.9968 205.961L34.2147 208.344C34.6371 208.582 35.159 208.277 35.159 207.793V198.102Z" stroke="#8676FF" stroke-width="1.5" stroke-linecap="round" stroke-linejoin="round"/>
<path d="M27.5142 200.019H32.393" stroke="#21CC9E" stroke-width="1.5" stroke-linecap="round" stroke-linejoin="round"/>
<path fill-rule="evenodd" clip-rule="evenodd" d="M24 230.333C24 228.583 24.0187 228 26.3333 228C28.6479 228 28.6667 228.583 28.6667 230.333C28.6667 232.083 28.674 232.667 26.3333 232.667C23.9926 232.667 24 232.083 24 230.333Z" stroke="#8676FF" stroke-width="1.5" stroke-linecap="round" stroke-linejoin="round"/>
<path fill-rule="evenodd" clip-rule="evenodd" d="M31.3335 230.333C31.3335 228.583 31.3522 228 33.6668 228C35.9814 228 36.0002 228.583 36.0002 230.333C36.0002 232.083 36.0075 232.667 33.6668 232.667C31.3261 232.667 31.3335 232.083 31.3335 230.333Z" stroke="#8676FF" stroke-width="1.5" stroke-linecap="round" stroke-linejoin="round"/>
<path fill-rule="evenodd" clip-rule="evenodd" d="M24 237.666C24 235.916 24.0187 235.333 26.3333 235.333C28.6479 235.333 28.6667 235.916 28.6667 237.666C28.6667 239.416 28.674 240 26.3333 240C23.9926 240 24 239.416 24 237.666Z" stroke="#8676FF" stroke-width="1.5" stroke-linecap="round" stroke-linejoin="round"/>
<path fill-rule="evenodd" clip-rule="evenodd" d="M31.3335 237.666C31.3335 235.916 31.3522 235.333 33.6668 235.333C35.9814 235.333 36.0002 235.916 36.0002 237.666C36.0002 239.416 36.0075 240 33.6668 240C31.3261 240 31.3335 239.416 31.3335 237.666Z" stroke="#21CC9E" stroke-width="1.5" stroke-linecap="round" stroke-linejoin="round"/>
<path d="M28.1046 111.847V109.803C28.1046 109.283 28.5286 108.86 29.0538 108.857H30.9779C31.5057 108.857 31.9335 109.28 31.9335 109.803V109.803V111.854C31.9334 112.295 32.2893 112.656 32.7352 112.666H34.0179C35.2966 112.666 36.3332 111.64 36.3332 110.374V110.374V104.558C36.3263 104.06 36.0902 103.593 35.6918 103.288L31.305 99.7899C30.5365 99.1807 29.444 99.1807 28.6754 99.7899L24.3079 103.295C23.908 103.598 23.6714 104.066 23.6665 104.565V110.374C23.6665 111.64 24.7031 112.666 25.9818 112.666H27.2645C27.7214 112.666 28.0918 112.3 28.0918 111.847V111.847" stroke="#8676FF" stroke-width="1.5" stroke-linecap="round" stroke-linejoin="round"/>
<path fill-rule="evenodd" clip-rule="evenodd" d="M30.0002 141.898C33.7596 141.898 35.4989 141.416 35.6668 139.48C35.6668 137.546 34.4543 137.67 34.4543 135.296C34.4543 133.442 32.697 131.333 30.0002 131.333C27.3033 131.333 25.5461 133.442 25.5461 135.296C25.5461 137.67 24.3335 137.546 24.3335 139.48C24.5021 141.423 26.2413 141.898 30.0002 141.898Z" stroke="#8676FF" stroke-width="1.5" stroke-linecap="round" stroke-linejoin="round"/>
<path d="M31.5929 143.904C30.6835 144.914 29.2648 144.926 28.3467 143.904" stroke="#21CC9E" stroke-width="1.5" stroke-linecap="round" stroke-linejoin="round"/>
<path fill-rule="evenodd" clip-rule="evenodd" d="M34.7144 174.713C32.677 176.751 29.66 177.191 27.1911 176.049C26.8266 175.902 26.5278 175.784 26.2437 175.784C25.4525 175.788 24.4676 176.556 23.9557 176.044C23.4439 175.532 24.2117 174.547 24.2117 173.751C24.2117 173.467 24.0978 173.173 23.951 172.808C22.8087 170.339 23.2496 167.321 25.287 165.284C27.8879 162.683 32.1135 162.683 34.7144 165.284C37.32 167.89 37.3153 172.112 34.7144 174.713Z" stroke="#8676FF" stroke-width="1.5" stroke-linecap="round" stroke-linejoin="round"/>
<path d="M32.6262 170.275H32.6322" stroke="#21CC9E" stroke-width="2" stroke-linecap="round" stroke-linejoin="round"/>
<path d="M29.9539 170.275H29.9599" stroke="#21CC9E" stroke-width="2" stroke-linecap="round" stroke-linejoin="round"/>
<path d="M27.281 170.275H27.287" stroke="#21CC9E" stroke-width="2" stroke-linecap="round" stroke-linejoin="round"/>
<rect x="470.5" y="70.5" width="153" height="165" rx="3.5" stroke="#E3D3FF"/>
<rect x="497" y="207" width="45" height="8" rx="4" fill="#E3D3FF"/>
<rect x="556" y="207" width="45" height="8" rx="4" fill="#E3D3FF"/>
<path d="M530.747 92.9672C539.49 89.6652 549.031 89.1045 558.1 91.3597C567.17 93.6149 575.337 98.579 581.515 105.591C587.693 112.603 591.589 121.331 592.683 130.612C593.778 139.893 592.02 149.288 587.643 157.545" stroke="#E3D3FF" stroke-width="5" stroke-linecap="round"/>
<path d="M593 136C593 145.346 590.153 154.469 584.839 162.157C579.525 169.845 571.996 175.731 563.253 179.033C554.51 182.335 544.969 182.896 535.9 180.641C526.83 178.385 518.663 173.421 512.485 166.409C506.307 159.397 502.411 150.669 501.317 141.388C500.222 132.107 501.98 122.712 506.357 114.455C510.734 106.198 517.523 99.4702 525.818 95.1669C534.114 90.8636 543.524 89.1891 552.795 90.3665" stroke="#8676FF" stroke-width="5" stroke-linecap="round"/>
<path d="M533.41 142.363C536.69 142.363 538.77 140.723 538.77 138.083C538.77 136.183 537.67 135.003 536.01 134.623C537.39 134.103 538.33 133.123 538.33 131.503C538.33 129.383 536.59 127.663 533.61 127.663C530.55 127.663 528.69 129.563 528.55 132.043H530.91C531.07 130.603 532.05 129.683 533.57 129.683C535.05 129.683 535.79 130.543 535.79 131.703C535.79 133.043 535.05 133.803 533.41 133.803H532.39V135.703H533.49C535.23 135.703 536.07 136.483 536.07 138.043C536.07 139.463 535.21 140.363 533.35 140.363C531.43 140.363 530.59 139.243 530.45 137.743H528.03C528.15 140.483 530.01 142.363 533.41 142.363ZM546.871 140.243C544.731 140.243 543.491 138.603 543.491 135.363V134.643C543.491 131.463 544.671 129.743 546.831 129.743C548.971 129.743 550.131 131.583 550.131 134.623V135.323C550.131 138.563 549.071 140.243 546.871 140.243ZM546.811 142.363C550.551 142.363 552.791 139.623 552.791 135.323V134.603C552.791 130.303 550.431 127.663 546.811 127.663C543.211 127.663 540.811 130.323 540.811 134.663V135.383C540.811 139.683 543.171 142.363 546.811 142.363ZM555.454 142.163H558.114V135.483L563.614 142.163H566.754L560.534 134.683L566.454 127.843H563.594L558.114 134.343V127.863H555.454V142.163Z" fill="#8676FF"/>
<path d="M449.816 70H287C284.791 70 283 71.7909 283 74V232C283 234.209 284.791 236 287 236H449.816C452.025 236 453.816 234.209 453.816 232V74C453.816 71.7909 452.025 70 449.816 70Z" stroke="#E3D3FF"/>
<path d="M295.653 136.745C295.653 134.124 297.778 132 300.398 132C303.019 132 305.143 134.124 305.143 136.745V214.561C305.143 217.182 303.019 219.306 300.398 219.306C297.778 219.306 295.653 217.182 295.653 214.561V136.745Z" fill="#E3D3FF"/>
<path d="M323.143 151.745C323.143 149.124 325.267 147 327.888 147C330.508 147 332.633 149.124 332.633 151.745V214.378C332.633 216.998 330.508 219.122 327.888 219.122C325.267 219.122 323.143 216.998 323.143 214.378V151.745Z" fill="#E3D3FF"/>
<path d="M350.633 165.745C350.633 163.124 352.757 161 355.378 161C357.998 161 360.123 163.124 360.123 165.745V214.459C360.123 217.08 357.998 219.204 355.378 219.204C352.757 219.204 350.633 217.08 350.633 214.459V165.745Z" fill="#E3D3FF"/>
<path d="M378.123 147.745C378.123 145.124 380.247 143 382.867 143C385.488 143 387.612 145.124 387.612 147.745V214.173C387.612 216.794 385.488 218.918 382.867 218.918C380.247 218.918 378.123 216.794 378.123 214.173V147.745Z" fill="#8676FF"/>
<path d="M405.612 162.745C405.612 160.124 407.737 158 410.357 158C412.978 158 415.102 160.124 415.102 162.745V213.99C415.102 216.61 412.978 218.735 410.357 218.735C407.737 218.735 405.612 216.61 405.612 213.99V162.745Z" fill="#E3D3FF"/>
<path d="M433.102 160.745C433.102 158.124 435.226 156 437.847 156C440.467 156 442.592 158.124 442.592 160.745V214.52C442.592 217.141 440.467 219.265 437.847 219.265C435.226 219.265 433.102 217.141 433.102 214.52V160.745Z" fill="#E3D3FF"/>
<rect x="332.979" y="85.1221" width="72.1225" height="12.6531" rx="6.32653" fill="#8676FF"/>
<rect x="341.837" y="90.1836" width="18.9796" height="2.53061" rx="1.26531" fill="white"/>
<rect x="368.408" y="87.3877" width="34.7959" height="8.12245" rx="4.06122" fill="#FDFDFA"/>
<rect x="373.47" y="90.1836" width="25.3061" height="2.53061" rx="1.26531" fill="#8676FF"/>
<path d="M368.489 136.6H369.293V135.088C371.057 134.968 372.101 133.852 372.101 132.448C372.101 130.828 371.069 130.228 369.293 129.94V127.48C370.025 127.6 370.397 128.02 370.529 128.752H371.945C371.801 127.264 370.841 126.46 369.293 126.316V125.224H368.489V126.304C366.857 126.412 365.789 127.408 365.789 128.74C365.789 130.264 366.713 130.912 368.489 131.212V133.912C367.349 133.768 367.085 133.108 366.989 132.328H365.501C365.621 133.78 366.437 134.944 368.489 135.088V136.6ZM370.625 132.592C370.625 133.3 370.097 133.804 369.293 133.912V131.344C370.337 131.572 370.625 131.908 370.625 132.592ZM367.205 128.608C367.205 128.008 367.661 127.54 368.489 127.444V129.808C367.433 129.592 367.205 129.232 367.205 128.608ZM376.322 135.1C378.29 135.1 379.538 134.116 379.538 132.532C379.538 131.392 378.878 130.684 377.882 130.456C378.71 130.144 379.274 129.556 379.274 128.584C379.274 127.312 378.23 126.28 376.442 126.28C374.606 126.28 373.49 127.42 373.406 128.908H374.822C374.918 128.044 375.506 127.492 376.418 127.492C377.306 127.492 377.75 128.008 377.75 128.704C377.75 129.508 377.306 129.964 376.322 129.964H375.71V131.104H376.37C377.414 131.104 377.918 131.572 377.918 132.508C377.918 133.36 377.402 133.9 376.286 133.9C375.134 133.9 374.63 133.228 374.546 132.328H373.094C373.166 133.972 374.282 135.1 376.322 135.1ZM381.153 136.456L382.725 133.768L381.345 133.216L380.253 136.06L381.153 136.456ZM386.737 135.1C388.585 135.1 389.893 133.96 389.893 132.148C389.893 130.348 388.801 129.268 387.253 129.268C386.341 129.268 385.741 129.604 385.405 129.988L385.417 127.66H389.401V126.4H384.193L384.121 131.176H384.937C385.321 130.732 385.849 130.432 386.725 130.432C387.673 130.432 388.273 131.092 388.273 132.124C388.273 133.18 387.709 133.864 386.725 133.864C385.621 133.864 385.297 133.312 385.165 132.52H383.677C383.773 133.996 384.721 135.1 386.737 135.1ZM392.624 134.98H394.232V126.4H392.804L390.812 127.816V129.22L392.624 127.984V134.98ZM398.948 135.1C400.796 135.1 402.104 133.96 402.104 132.148C402.104 130.348 401.012 129.268 399.464 129.268C398.552 129.268 397.952 129.604 397.616 129.988L397.628 127.66H401.612V126.4H396.404L396.332 131.176H397.148C397.532 130.732 398.06 130.432 398.936 130.432C399.884 130.432 400.484 131.092 400.484 132.124C400.484 133.18 399.92 133.864 398.936 133.864C397.832 133.864 397.508 133.312 397.376 132.52H395.888C395.984 133.996 396.932 135.1 398.948 135.1Z" fill="#0C0039"/>
<defs>
<linearGradient id="paint0_linear_1_1700" x1="454" y1="295" x2="454" y2="381" gradientUnits="userSpaceOnUse">
<stop stop-color="#7521FF" stop-opacity="0.2"/>
<stop offset="1" stop-color="#7521FF" stop-opacity="0"/>
</linearGradient>
</defs>
</svg>
