<svg width="60" height="60" viewBox="0 0 60 60" fill="none" xmlns="http://www.w3.org/2000/svg">
<path d="M24.2854 33.1368C16.23 33.1368 4.2876 37.1176 4.2876 45.6354C4.2876 48.0974 4.66249 49.56 5.49383 50.3725C7.05001 51.8912 10.8369 51.8098 17.1175 51.6724C19.2113 51.6288 21.5857 51.5787 24.2665 51.5787C26.8101 51.5787 29.1035 51.6288 31.141 51.6724C37.2965 51.8097 41.3649 51.9034 43.0146 50.2848C43.8708 49.4474 44.2644 47.9727 44.2644 45.6353C44.2705 37.1175 32.3472 33.1367 24.2856 33.1367L24.2854 33.1368Z" fill="#8676FF"/>
<path d="M58.4999 34.5749H56.8752C56.7663 33.9712 56.6076 33.3775 56.4001 32.8003L57.7937 31.9943C58.5099 31.578 58.7531 30.6604 58.3373 29.9442L57.7122 28.9133H57.7126C57.2963 28.1979 56.3808 27.9525 55.6629 28.3632L54.2693 29.1692V29.1696C53.8727 28.701 53.4376 28.2664 52.9695 27.8697L53.7755 26.4762C53.9743 26.1322 54.0283 25.7238 53.925 25.3401C53.8217 24.9565 53.5702 24.63 53.2258 24.4325L52.1949 23.8074H52.1944C51.8496 23.6087 51.4403 23.5546 51.0558 23.6579C50.6714 23.7608 50.3435 24.0128 50.1448 24.3576L49.3762 25.776C48.7991 25.5677 48.2054 25.4086 47.6012 25.3013V23.6949C47.6012 22.8667 46.9299 22.1953 46.1016 22.1953H44.9264C44.0982 22.1953 43.4268 22.8666 43.4268 23.6949V25.3013C42.8235 25.4116 42.2297 25.5703 41.6518 25.776L40.8519 24.3889C40.6531 24.0437 40.3257 23.7921 39.9412 23.6888C39.5568 23.586 39.147 23.6396 38.8022 23.8388L37.7712 24.4639C37.4264 24.6614 37.1749 24.9879 37.0716 25.3715C36.9687 25.7547 37.0223 26.1636 37.2211 26.5075L38.0271 27.9011V27.9007C37.562 28.3009 37.1274 28.7355 36.7276 29.2005L35.334 28.3945C34.6156 27.9835 33.7002 28.2293 33.2839 28.9446L32.6588 29.9756H32.6592C32.2918 30.5863 32.4068 31.371 32.9343 31.8505C35.0223 32.4233 37.0376 33.2345 38.9394 34.269C39.2267 34.425 39.5018 34.5876 39.7707 34.7563C40.2258 33.3875 41.1543 32.2263 42.3897 31.4813C43.6246 30.7363 45.0854 30.4564 46.5082 30.6927C47.9315 30.9289 49.2231 31.6652 50.1516 32.7689C51.0801 33.8731 51.584 35.272 51.5726 36.7143C51.5609 38.1568 51.0351 39.5478 50.0892 40.6367C49.1437 41.726 47.8403 42.4418 46.4135 42.6554C46.7069 43.6223 46.8625 44.6257 46.876 45.6362C46.876 48.0298 46.4824 49.8105 45.6263 51.117H46.1202C46.9484 51.117 47.6198 50.4452 47.6198 49.617V48.036C48.2174 47.9261 48.8046 47.7674 49.376 47.5608L50.1759 48.9544C50.3747 49.2997 50.7021 49.5512 51.0866 49.6545C51.4711 49.7574 51.8808 49.7037 52.2256 49.5045L53.2566 48.8794C53.9514 48.4762 54.2029 47.5952 53.8254 46.886L53.0255 45.4924C53.4902 45.0944 53.9231 44.6594 54.3189 44.1925L55.7125 44.9986V44.999C56.0573 45.1982 56.4671 45.2518 56.8516 45.149C57.236 45.0456 57.5638 44.7937 57.7626 44.4489L58.3877 43.4179H58.3873C58.8032 42.7017 58.5595 41.7841 57.8437 41.3683L56.4501 40.5623V40.5618C56.6419 39.9751 56.784 39.3727 56.8751 38.7619H58.4998C58.8983 38.7637 59.2806 38.6063 59.5622 38.3247C59.8438 38.0431 60.0016 37.6603 59.9998 37.2624V36.0749C60.0016 35.6764 59.8438 35.2941 59.5622 35.0125C59.2806 34.731 58.8983 34.5731 58.4998 34.5749L58.4999 34.5749Z" fill="#21CC9E"/>
<path d="M24.2851 8.25879C21.6579 8.26576 19.1404 9.31283 17.2839 11.172C15.4273 13.0307 14.3833 15.5495 14.3799 18.1768C14.3799 23.7386 18.9605 30.5314 24.2974 30.5314C29.6343 30.5314 34.2028 23.7634 34.2028 18.1768C34.1993 15.5474 33.1535 13.0264 31.2944 11.1673C29.4352 9.30811 26.9143 8.26236 24.2853 8.2589L24.2851 8.25879Z" fill="#8676FF"/>
<path d="M13.3176 24.7825V25.0763C13.2361 26.3016 12.587 27.4189 11.563 28.0972C10.5391 28.775 9.25747 28.9367 8.097 28.5335C6.93697 28.1303 6.03116 27.2088 5.6485 26.0418C5.26533 24.8749 5.44885 23.5963 6.14501 22.5842C6.84074 21.572 7.96891 20.9425 9.19556 20.8824C10.4227 20.8218 11.607 21.3375 12.3987 22.2764C12.0028 20.9451 11.7927 19.5654 11.774 18.1771V17.7146L11.5303 17.627L11.6489 16.596C11.6785 16.3388 11.6044 16.0803 11.4423 15.8781C11.2801 15.6762 11.0443 15.5476 10.7866 15.521L10.0242 15.4334C9.50896 15.3885 9.04864 15.753 8.97409 16.2647L8.86163 17.3022C8.46407 17.3288 8.06913 17.3872 7.68073 17.477L7.26181 16.5271C7.04821 16.0511 6.49721 15.8279 6.01207 16.021L5.30588 16.3336V16.3332C5.06918 16.436 4.88304 16.6291 4.78932 16.8698C4.69516 17.1104 4.70127 17.3785 4.80589 17.6143L5.2248 18.5703V18.5707C4.89263 18.79 4.58096 19.0389 4.29368 19.3144L3.45018 18.6893H3.44974C3.24224 18.5345 2.98157 18.4691 2.72568 18.508C2.4698 18.5467 2.24007 18.6862 2.08749 18.8955L1.63109 19.5206H1.63153C1.31244 19.9539 1.40486 20.5633 1.83772 20.8828L2.67512 21.5079C2.49901 21.8654 2.35472 22.2377 2.24356 22.6204L1.17513 22.514C0.918809 22.484 0.661181 22.5576 0.459786 22.7185C0.257956 22.8793 0.128484 23.1139 0.10015 23.3702L0.00642834 24.1448C-0.0232135 24.4011 0.0504559 24.6587 0.21087 24.8606C0.371723 25.0624 0.60625 25.1919 0.862561 25.2198L1.8813 25.3388C1.91007 25.7363 1.97066 26.1317 2.06264 26.5197L1.10667 26.9321H1.10624C0.632831 27.1487 0.410512 27.6971 0.600134 28.1823L0.912689 28.8945C1.12934 29.3854 1.7017 29.6086 2.1938 29.3945L3.14976 28.9756C3.37339 29.3047 3.62186 29.616 3.89344 29.9067L3.26833 30.7502L3.26877 30.7507C3.10878 30.9634 3.04384 31.2328 3.08873 31.4952C3.13363 31.7577 3.28446 31.99 3.5059 32.1378L4.13101 32.6003C4.56431 32.9194 5.17373 32.8269 5.49325 32.3941L6.11836 31.5567C6.47712 31.7297 6.84896 31.874 7.23083 31.9878L7.11226 33.0253H7.11182C7.05689 33.5593 7.44137 34.0379 7.9745 34.1003L8.73692 34.1879V34.1874C9.2731 34.2463 9.75566 33.8609 9.81799 33.3252L9.93046 32.2943C10.3284 32.2651 10.7234 32.2045 11.1114 32.1129L11.5303 33.0689C11.7439 33.5453 12.2966 33.7663 12.78 33.5689L13.4862 33.2629C13.7229 33.16 13.909 32.9669 14.0028 32.7263C14.0969 32.4856 14.0908 32.2175 13.9862 31.9817L13.5673 31.0257V31.0253C13.8964 30.8021 14.2076 30.5532 14.4984 30.2816L15.3419 30.9067H15.3423C15.7756 31.2258 16.3851 31.1334 16.7046 30.7005L17.1296 30.1195C15.5137 28.6143 14.2168 26.7991 13.3175 24.7826L13.3176 24.7825Z" fill="#21CC9E"/>
</svg>
