<svg width="185" height="180" viewBox="0 0 185 180" fill="none" xmlns="http://www.w3.org/2000/svg">
<rect width="185" height="180" rx="10" fill="white"/>
<path d="M26.904 72H28.598L31.26 64.135H29.885L27.828 70.515L25.782 64.135H24.253L26.904 72ZM32.2264 72H33.5574V66.247H32.2264V72ZM32.8754 65.301C33.3154 65.301 33.6674 64.971 33.6674 64.542C33.6674 64.102 33.3154 63.772 32.8754 63.772C32.4354 63.772 32.0834 64.102 32.0834 64.542C32.0834 64.971 32.4354 65.301 32.8754 65.301ZM37.1487 72.11C38.6227 72.11 39.4477 71.439 39.4477 70.273C39.4477 69.052 38.6447 68.722 37.2917 68.513C36.3787 68.359 36.1037 68.194 36.1037 67.776C36.1037 67.369 36.4447 67.094 37.0167 67.094C37.6327 67.094 37.9297 67.336 38.0397 67.864H39.2717C39.1287 66.566 38.1937 66.126 37.0167 66.126C35.9387 66.126 34.8607 66.698 34.8607 67.853C34.8607 68.931 35.4217 69.36 36.9397 69.602C37.7867 69.745 38.1717 69.921 38.1717 70.394C38.1717 70.878 37.8527 71.131 37.1377 71.131C36.3567 71.131 36.0597 70.79 35.9937 70.207H34.7397C34.7947 71.428 35.6637 72.11 37.1487 72.11ZM40.6482 72H41.9792V66.247H40.6482V72ZM41.2972 65.301C41.7372 65.301 42.0892 64.971 42.0892 64.542C42.0892 64.102 41.7372 63.772 41.2972 63.772C40.8572 63.772 40.5052 64.102 40.5052 64.542C40.5052 64.971 40.8572 65.301 41.2972 65.301ZM45.5596 72.099C45.9666 72.099 46.2526 72.033 46.4616 71.956V70.9C46.2746 70.977 46.0766 71.01 45.8126 71.01C45.3946 71.01 45.1526 70.779 45.1526 70.273V67.248H46.4176V66.247H45.1526V64.982H43.8216V66.247H43.0516V67.248H43.8216V70.394C43.8216 71.483 44.4156 72.099 45.5596 72.099ZM50.2361 71.076C49.2241 71.076 48.6411 70.339 48.6411 69.162V69.074C48.6411 67.886 49.2461 67.171 50.2361 67.171C51.2261 67.171 51.8201 67.897 51.8201 69.085V69.162C51.8201 70.339 51.2261 71.076 50.2361 71.076ZM50.2251 72.11C51.9191 72.11 53.1841 70.944 53.1841 69.151V69.063C53.1841 67.303 51.9191 66.126 50.2361 66.126C48.5421 66.126 47.2771 67.314 47.2771 69.096V69.184C47.2771 70.933 48.5311 72.11 50.2251 72.11ZM54.3867 72H55.7177V69.008C55.7177 67.787 56.4217 67.413 57.5877 67.402V66.159C56.6197 66.17 56.0807 66.599 55.7177 67.325V66.247H54.3867V72ZM60.7278 72.11C62.2018 72.11 63.0268 71.439 63.0268 70.273C63.0268 69.052 62.2238 68.722 60.8708 68.513C59.9578 68.359 59.6828 68.194 59.6828 67.776C59.6828 67.369 60.0238 67.094 60.5958 67.094C61.2118 67.094 61.5088 67.336 61.6188 67.864H62.8508C62.7078 66.566 61.7728 66.126 60.5958 66.126C59.5178 66.126 58.4398 66.698 58.4398 67.853C58.4398 68.931 59.0008 69.36 60.5188 69.602C61.3658 69.745 61.7508 69.921 61.7508 70.394C61.7508 70.878 61.4318 71.131 60.7168 71.131C59.9358 71.131 59.6388 70.79 59.5728 70.207H58.3188C58.3738 71.428 59.2428 72.11 60.7278 72.11ZM66.8154 73.969H68.1464V71.098C68.4544 71.659 69.1144 72.11 70.0274 72.11C71.5124 72.11 72.5794 70.988 72.5794 69.14V69.052C72.5794 67.193 71.4684 66.126 70.0274 66.126C69.1804 66.126 68.4654 66.621 68.1464 67.171V66.247H66.8154V73.969ZM69.6974 71.054C68.7294 71.054 68.1024 70.449 68.1024 69.162V69.074C68.1024 67.798 68.7624 67.171 69.6864 67.171C70.5554 67.171 71.2154 67.798 71.2154 69.074V69.162C71.2154 70.394 70.6764 71.054 69.6974 71.054ZM76.3064 72.11C77.7804 72.11 78.7594 71.45 78.9464 70.24H77.6594C77.5604 70.801 77.1424 71.12 76.3394 71.12C75.3494 71.12 74.7994 70.504 74.7554 69.415H78.9684V69.03C78.9684 66.973 77.6814 66.126 76.2514 66.126C74.6124 66.126 73.3914 67.314 73.3914 69.096V69.184C73.3914 70.999 74.6124 72.11 76.3064 72.11ZM74.7774 68.524C74.9094 67.633 75.4484 67.094 76.2514 67.094C77.0764 67.094 77.5824 67.534 77.6484 68.524H74.7774ZM80.1572 72H81.4882V69.008C81.4882 67.787 82.1922 67.413 83.3582 67.402V66.159C82.3902 66.17 81.8512 66.599 81.4882 67.325V66.247H80.1572V72ZM87.1504 72H88.4814V68.557C88.4814 67.677 89.0864 67.237 89.7464 67.237C90.3954 67.237 90.7694 67.6 90.7694 68.447V72H92.1004V68.557C92.1004 67.677 92.7054 67.237 93.3654 67.237C94.0254 67.237 94.3884 67.6 94.3884 68.447V72H95.7194V68.359C95.7194 66.775 94.8614 66.126 93.8054 66.126C93.0904 66.126 92.2984 66.445 91.8584 67.16C91.5724 66.445 90.9784 66.126 90.2304 66.126C89.3834 66.126 88.7564 66.588 88.4814 67.127V66.247H87.1504V72ZM99.8221 71.076C98.8101 71.076 98.2271 70.339 98.2271 69.162V69.074C98.2271 67.886 98.8321 67.171 99.8221 67.171C100.812 67.171 101.406 67.897 101.406 69.085V69.162C101.406 70.339 100.812 71.076 99.8221 71.076ZM99.8111 72.11C101.505 72.11 102.77 70.944 102.77 69.151V69.063C102.77 67.303 101.505 66.126 99.8221 66.126C98.1281 66.126 96.8631 67.314 96.8631 69.096V69.184C96.8631 70.933 98.1171 72.11 99.8111 72.11ZM103.973 72H105.304V68.612C105.304 67.699 105.909 67.237 106.657 67.237C107.449 67.237 107.801 67.633 107.801 68.502V72H109.132V68.381C109.132 66.797 108.318 66.126 107.163 66.126C106.217 66.126 105.579 66.599 105.304 67.16V66.247H103.973V72ZM112.623 72.099C113.03 72.099 113.316 72.033 113.525 71.956V70.9C113.338 70.977 113.14 71.01 112.876 71.01C112.458 71.01 112.216 70.779 112.216 70.273V67.248H113.481V66.247H112.216V64.982H110.885V66.247H110.115V67.248H110.885V70.394C110.885 71.483 111.479 72.099 112.623 72.099ZM114.726 72H116.057V68.612C116.057 67.699 116.662 67.237 117.41 67.237C118.202 67.237 118.554 67.633 118.554 68.502V72H119.885V68.381C119.885 66.797 119.071 66.126 117.916 66.126C116.97 66.126 116.332 66.599 116.057 67.16V63.585H114.726V72ZM123.387 72.11C124.861 72.11 125.686 71.439 125.686 70.273C125.686 69.052 124.883 68.722 123.53 68.513C122.617 68.359 122.342 68.194 122.342 67.776C122.342 67.369 122.683 67.094 123.255 67.094C123.871 67.094 124.168 67.336 124.278 67.864H125.51C125.367 66.566 124.432 66.126 123.255 66.126C122.177 66.126 121.099 66.698 121.099 67.853C121.099 68.931 121.66 69.36 123.178 69.602C124.025 69.745 124.41 69.921 124.41 70.394C124.41 70.878 124.091 71.131 123.376 71.131C122.595 71.131 122.298 70.79 122.232 70.207H120.978C121.033 71.428 121.902 72.11 123.387 72.11Z" fill="#3B3578"/>
<path d="M52.195 148H58.916V146.661H54.964L57.031 144.646C58.136 143.58 58.851 142.527 58.851 141.318C58.851 139.68 57.707 138.575 55.783 138.575C53.82 138.575 52.598 139.745 52.481 141.773H54.067C54.223 140.46 54.808 139.927 55.731 139.927C56.628 139.927 57.122 140.473 57.122 141.344C57.122 142.228 56.589 143.047 55.705 143.983L52.195 147.688V148ZM64.0541 146.752C62.6631 146.752 61.8571 145.686 61.8571 143.58V143.112C61.8571 141.045 62.6241 139.927 64.0281 139.927C65.4191 139.927 66.1731 141.123 66.1731 143.099V143.554C66.1731 145.66 65.4841 146.752 64.0541 146.752ZM64.0151 148.13C66.4461 148.13 67.9021 146.349 67.9021 143.554V143.086C67.9021 140.291 66.3681 138.575 64.0151 138.575C61.6751 138.575 60.1151 140.304 60.1151 143.125V143.593C60.1151 146.388 61.6491 148.13 64.0151 148.13ZM69.5034 148H71.0764V144.659L73.6244 148H75.4444L72.5844 144.321L75.2234 141.201H73.5074L71.0764 144.191V138.055H69.5034V148ZM78.2445 146.752H79.5575V144.178H81.9365V142.956H79.5575V140.382H78.2445V142.956H75.8785V144.178H78.2445V146.752Z" fill="#0C0039"/>
<path d="M86.7119 148H88.2849V142.384H89.8319V141.201H88.2849V140.226C88.2849 139.641 88.5449 139.225 89.1819 139.225C89.4679 139.225 89.7149 139.277 89.8969 139.342V138.12C89.6109 138.029 89.3769 137.99 88.9999 137.99C87.5439 137.99 86.7119 138.796 86.7119 140.291V141.201H85.7889V142.384H86.7119V148ZM91.1489 148H92.7219V144.464C92.7219 143.021 93.5539 142.579 94.9319 142.566V141.097C93.7879 141.11 93.1509 141.617 92.7219 142.475V141.201H91.1489V148ZM99.1789 148.13C100.921 148.13 102.078 147.35 102.299 145.92H100.778C100.661 146.583 100.167 146.96 99.2179 146.96C98.0479 146.96 97.3979 146.232 97.3459 144.945H102.325V144.49C102.325 142.059 100.804 141.058 99.1139 141.058C97.1769 141.058 95.7339 142.462 95.7339 144.568V144.672C95.7339 146.817 97.1769 148.13 99.1789 148.13ZM97.3719 143.892C97.5279 142.839 98.1649 142.202 99.1139 142.202C100.089 142.202 100.687 142.722 100.765 143.892H97.3719ZM106.72 148.13C108.462 148.13 109.619 147.35 109.84 145.92H108.319C108.202 146.583 107.708 146.96 106.759 146.96C105.589 146.96 104.939 146.232 104.887 144.945H109.866V144.49C109.866 142.059 108.345 141.058 106.655 141.058C104.718 141.058 103.275 142.462 103.275 144.568V144.672C103.275 146.817 104.718 148.13 106.72 148.13ZM104.913 143.892C105.069 142.839 105.706 142.202 106.655 142.202C107.63 142.202 108.228 142.722 108.306 143.892H104.913ZM111.31 148H112.883V138.055H111.31V148ZM116.581 148.13C117.621 148.13 118.219 147.753 118.661 147.168V148H120.208V143.541C120.208 141.682 119.012 141.058 117.491 141.058C115.97 141.058 114.709 141.721 114.579 143.307H116.1C116.178 142.631 116.581 142.241 117.4 142.241C118.323 142.241 118.635 142.696 118.635 143.606V143.957H117.79C115.84 143.957 114.306 144.529 114.306 146.115C114.306 147.532 115.333 148.13 116.581 148.13ZM116.958 146.999C116.178 146.999 115.866 146.622 115.866 146.05C115.866 145.218 116.633 144.945 117.829 144.945H118.635V145.621C118.635 146.492 117.92 146.999 116.958 146.999ZM122.011 148H123.584V143.996C123.584 142.917 124.299 142.371 125.183 142.371C126.119 142.371 126.535 142.839 126.535 143.866V148H128.108V143.723C128.108 141.851 127.146 141.058 125.781 141.058C124.663 141.058 123.909 141.617 123.584 142.28V141.201H122.011V148ZM132.897 148.13C134.743 148.13 135.926 147.025 136.043 145.465H134.6C134.509 146.427 133.794 146.921 132.962 146.921C131.805 146.921 131.077 146.141 131.077 144.659V144.555C131.077 143.151 131.844 142.319 132.923 142.319C133.755 142.319 134.353 142.696 134.483 143.606H136.004C135.822 141.734 134.405 141.058 132.897 141.058C130.999 141.058 129.465 142.423 129.465 144.581V144.685C129.465 146.856 130.947 148.13 132.897 148.13ZM140.388 148.13C142.13 148.13 143.287 147.35 143.508 145.92H141.987C141.87 146.583 141.376 146.96 140.427 146.96C139.257 146.96 138.607 146.232 138.555 144.945H143.534V144.49C143.534 142.059 142.013 141.058 140.323 141.058C138.386 141.058 136.943 142.462 136.943 144.568V144.672C136.943 146.817 138.386 148.13 140.388 148.13ZM138.581 143.892C138.737 142.839 139.374 142.202 140.323 142.202C141.298 142.202 141.896 142.722 141.974 143.892H138.581ZM144.939 148H146.512V144.464C146.512 143.021 147.344 142.579 148.722 142.566V141.097C147.578 141.11 146.941 141.617 146.512 142.475V141.201H144.939V148ZM152.433 148.13C154.175 148.13 155.15 147.337 155.15 145.959C155.15 144.516 154.201 144.126 152.602 143.879C151.523 143.697 151.198 143.502 151.198 143.008C151.198 142.527 151.601 142.202 152.277 142.202C153.005 142.202 153.356 142.488 153.486 143.112H154.942C154.773 141.578 153.668 141.058 152.277 141.058C151.003 141.058 149.729 141.734 149.729 143.099C149.729 144.373 150.392 144.88 152.186 145.166C153.187 145.335 153.642 145.543 153.642 146.102C153.642 146.674 153.265 146.973 152.42 146.973C151.497 146.973 151.146 146.57 151.068 145.881H149.586C149.651 147.324 150.678 148.13 152.433 148.13Z" fill="#3B3578"/>
<circle opacity="0.2" cx="34" cy="144" r="10" fill="#21CC9E"/>
<circle cx="34" cy="144" r="4" fill="#21CC9E"/>
<path d="M54.379 116H56.121V106.705H54.574L52.416 108.239V109.76L54.379 108.421V116ZM62.0483 114.752C60.6573 114.752 59.8513 113.686 59.8513 111.58V111.112C59.8513 109.045 60.6183 107.927 62.0223 107.927C63.4133 107.927 64.1673 109.123 64.1673 111.099V111.554C64.1673 113.66 63.4783 114.752 62.0483 114.752ZM62.0093 116.13C64.4403 116.13 65.8963 114.349 65.8963 111.554V111.086C65.8963 108.291 64.3623 106.575 62.0093 106.575C59.6693 106.575 58.1093 108.304 58.1093 111.125V111.593C58.1093 114.388 59.6433 116.13 62.0093 116.13ZM67.4975 116H69.0705V112.659L71.6185 116H73.4385L70.5785 112.321L73.2175 109.201H71.5015L69.0705 112.191V106.055H67.4975V116ZM76.2386 114.752H77.5516V112.178H79.9306V110.956H77.5516V108.382H76.2386V110.956H73.8726V112.178H76.2386V114.752Z" fill="#0C0039"/>
<path d="M87.4101 116.13C89.2561 116.13 90.4391 115.025 90.5561 113.465H89.1131C89.0221 114.427 88.3071 114.921 87.4751 114.921C86.3181 114.921 85.5901 114.141 85.5901 112.659V112.555C85.5901 111.151 86.3571 110.319 87.4361 110.319C88.2681 110.319 88.8661 110.696 88.9961 111.606H90.5171C90.3351 109.734 88.9181 109.058 87.4101 109.058C85.5121 109.058 83.9781 110.423 83.9781 112.581V112.685C83.9781 114.856 85.4601 116.13 87.4101 116.13ZM91.9496 116H93.5226V106.055H91.9496V116ZM95.4789 116H97.0519V109.201H95.4789V116ZM96.2459 108.083C96.7659 108.083 97.1819 107.693 97.1819 107.186C97.1819 106.666 96.7659 106.276 96.2459 106.276C95.7259 106.276 95.3099 106.666 95.3099 107.186C95.3099 107.693 95.7259 108.083 96.2459 108.083ZM101.959 116.13C103.701 116.13 104.858 115.35 105.079 113.92H103.558C103.441 114.583 102.947 114.96 101.998 114.96C100.828 114.96 100.178 114.232 100.126 112.945H105.105V112.49C105.105 110.059 103.584 109.058 101.894 109.058C99.9572 109.058 98.5142 110.462 98.5142 112.568V112.672C98.5142 114.817 99.9572 116.13 101.959 116.13ZM100.152 111.892C100.308 110.839 100.945 110.202 101.894 110.202C102.869 110.202 103.467 110.722 103.545 111.892H100.152ZM106.51 116H108.083V111.996C108.083 110.917 108.798 110.371 109.682 110.371C110.618 110.371 111.034 110.839 111.034 111.866V116H112.607V111.723C112.607 109.851 111.645 109.058 110.28 109.058C109.162 109.058 108.408 109.617 108.083 110.28V109.201H106.51V116ZM116.733 116.117C117.214 116.117 117.552 116.039 117.799 115.948V114.7C117.578 114.791 117.344 114.83 117.032 114.83C116.538 114.83 116.252 114.557 116.252 113.959V110.384H117.747V109.201H116.252V107.706H114.679V109.201H113.769V110.384H114.679V114.102C114.679 115.389 115.381 116.117 116.733 116.117ZM121.609 116.13C123.351 116.13 124.326 115.337 124.326 113.959C124.326 112.516 123.377 112.126 121.778 111.879C120.699 111.697 120.374 111.502 120.374 111.008C120.374 110.527 120.777 110.202 121.453 110.202C122.181 110.202 122.532 110.488 122.662 111.112H124.118C123.949 109.578 122.844 109.058 121.453 109.058C120.179 109.058 118.905 109.734 118.905 111.099C118.905 112.373 119.568 112.88 121.362 113.166C122.363 113.335 122.818 113.543 122.818 114.102C122.818 114.674 122.441 114.973 121.596 114.973C120.673 114.973 120.322 114.57 120.244 113.881H118.762C118.827 115.324 119.854 116.13 121.609 116.13Z" fill="#3B3578"/>
<circle opacity="0.2" cx="34" cy="112" r="10" fill="#FFD700"/>
<circle cx="34" cy="112" r="4" fill="#FFD700"/>
<rect x="24" y="35" width="8" height="15" rx="1" fill="#8676FF"/>
<rect x="38" y="36" width="8" height="14" rx="1" fill="#FFD700"/>
<rect x="52" y="27" width="8" height="23" rx="1" fill="#21CC9E"/>
<rect x="66" y="42" width="8" height="8" rx="1" fill="#FFD700"/>
<rect x="80" y="36" width="8" height="14" rx="1" fill="#8676FF"/>
<rect x="94" y="26" width="8" height="24" rx="1" fill="#21CC9E"/>
</svg>
