<svg width="30" height="30" viewBox="0 0 30 30" fill="none" xmlns="http://www.w3.org/2000/svg">
<path d="M15.001 17.5195L9.86446 17.7L5.16433 19.1881C3.57427 19.6915 2.49365 21.1672 2.49365 22.835V28.5911C2.49365 29.367 3.12268 29.996 3.89856 29.996H23.2582L26.1012 29.9966C26.8771 29.9966 27.5061 29.3676 27.5061 28.5917V22.8356C27.5061 21.1677 26.4255 19.6921 24.8354 19.1887L20.1353 17.7006L15.001 17.5195Z" fill="#81314E"/>
<path opacity="0.5" d="M20.1353 17.701L15.0009 17.5205L9.86438 17.701C9.64741 21.482 13.6802 27.4353 15.2226 29.9968C16.7651 27.4353 20.3523 21.482 20.1353 17.701Z" fill="#F4FBFF"/>
<path d="M17.4081 28.1165L15.8144 22.0957H14.1876L12.8374 28.1693L15.2227 29.9982L17.4081 28.1165Z" fill="#F3C12C"/>
<path d="M17.8758 17.4197V13.7871H12.1206V17.4197C12.1206 19.009 14.9983 20.7418 14.9983 20.7418C14.9983 20.7418 17.8758 19.0089 17.8758 17.4197V17.4197Z" fill="#F7BEAF"/>
<path d="M7.15308 29.9994V26.7125C7.15308 26.4354 6.92851 26.2109 6.65149 26.2109C6.37447 26.2109 6.1499 26.4355 6.1499 26.7125V29.9994H7.15308Z" fill="#B0EBE9"/>
<path d="M23.8469 29.9994V26.7125C23.8469 26.4354 23.6224 26.2109 23.3453 26.2109C23.0683 26.2109 22.8438 26.4355 22.8438 26.7125V29.9994H23.8469Z" fill="#B0EBE9"/>
<path d="M12.2002 0H17.686C18.5653 0 19.2781 0.712774 19.2781 1.59207C19.2781 1.88902 19.5188 2.12975 19.8157 2.12975H19.8694C20.7487 2.12975 21.4614 2.84253 21.4614 3.72182V7.73223H8.53613V3.66411C8.53613 1.6405 10.1766 0 12.2002 0Z" fill="#F15060"/>
<path d="M17.2266 4.52082C15.6029 4.95296 13.8843 4.90441 12.2819 4.375L12.2798 4.37436C11.5231 4.12441 10.7435 4.68786 10.7435 5.48477V6.09127C10.7435 6.70309 10.2475 7.19909 9.63568 7.19909H8.53564V9.01065C8.53564 9.47354 8.91089 9.84879 9.37378 9.84879C9.51979 9.84879 9.63866 9.96318 9.64788 10.1089C9.80142 12.5435 11.5784 14.5374 13.9089 15.0185C13.9086 15.0186 13.9093 15.0184 13.9089 15.0185C14.2605 15.0913 14.6258 15.1293 14.999 15.1293C17.8457 15.1293 20.173 12.911 20.3497 10.1088C20.3589 9.96309 20.4778 9.8487 20.6238 9.8487C21.0867 9.8487 21.462 9.47345 21.462 9.01056V7.19898H20.3619C19.75 7.19898 19.254 6.70291 19.254 6.09109V5.48479C19.254 4.68781 18.4743 4.12429 17.7176 4.37443C17.5552 4.42812 17.3912 4.47519 17.2266 4.51895V4.52082Z" fill="#FFDECF"/>
<path d="M14.9986 19.6411L13.4663 20.9664C13.0879 21.2936 12.5115 21.2316 12.2114 20.8315L9.86426 17.7013L10.7112 16.9634C11.1258 16.6023 11.7462 16.6125 12.1486 16.9872L14.9986 19.6411Z" fill="#F4FBFF"/>
<path d="M15.0015 19.6411L16.5337 20.9664C16.9121 21.2936 17.4885 21.2316 17.7886 20.8315L20.1358 17.7013L19.2888 16.9634C18.8742 16.6023 18.2538 16.6125 17.8514 16.9872L15.0015 19.6411Z" fill="#F4FBFF"/>
<path d="M9.86444 17.7041L9.48991 17.7738C8.66313 17.9275 7.94237 18.4414 7.54681 19.1835C7.37275 19.51 7.24512 19.8739 7.24512 20.2388C7.24512 20.7885 8.09546 21.469 8.61126 21.8313C8.7883 21.9556 8.81576 22.2283 8.66619 22.3901C8.37436 22.7057 8.01113 23.2426 8.12104 23.8826C8.43883 25.7329 11.7653 28.4597 13.8384 30H15.2226C13.6803 27.4384 9.64747 21.4851 9.86444 17.7041Z" fill="#B0EBE9"/>
<path d="M16.6066 29.999C18.6797 28.4587 22.0061 25.7319 22.3239 23.8816C22.4338 23.2417 22.0706 22.7047 21.7787 22.3891C21.6292 22.2273 21.6566 21.9546 21.8337 21.8303C22.3495 21.4681 23.1998 20.7875 23.1998 20.2379C23.1998 19.9513 23.1211 19.6654 23.003 19.3978C22.6198 18.5289 21.795 17.9356 20.8545 17.8039L20.1353 17.7031C20.3523 21.4842 16.7651 27.4375 15.2227 29.9989H16.6066V29.999Z" fill="#B0EBE9"/>
<path d="M13.2998 21.0784L14.1875 22.0941H15.8143L16.6823 21.0697L15.0009 19.6406L13.2998 21.0784Z" fill="#F3C12C"/>
</svg>
