<svg width="60" height="60" viewBox="0 0 60 60" fill="none" xmlns="http://www.w3.org/2000/svg">
<g clip-path="url(#clip0_1_1891)">
<path d="M29.9989 0C33.4076 0 36.6765 1.35453 39.087 3.7649C41.4969 6.17479 42.8513 9.44427 42.8513 12.853C42.8513 16.2617 41.4974 19.5306 39.087 21.9411C36.6767 24.3516 33.4076 25.7054 29.9989 25.7054C26.5902 25.7054 23.3207 24.3514 20.9108 21.9411C18.5005 19.5307 17.1459 16.2617 17.1459 12.853C17.1459 9.44427 18.5005 6.17479 20.9102 3.7649C23.3206 1.35454 26.5904 0 29.9989 0Z" fill="#21CC9E"/>
<path d="M55.3455 48.7881C54.1553 50.0942 52.8658 51.3071 51.4899 52.4151C44.6915 57.8957 36.0567 60.5723 27.3518 59.8978C18.6458 59.2239 10.5256 55.2499 4.65314 48.7881C4.08655 48.1676 3.55247 47.5238 3.03613 46.8677C5.14055 38.152 16.4054 31.4902 29.9998 31.4902C43.5856 31.4902 54.8553 38.1513 56.9635 46.8658C56.4478 47.5225 55.9137 48.167 55.3471 48.7881H55.3455Z" fill="#8676FF"/>
</g>
<defs>
<clipPath id="clip0_1_1891">
<rect width="60" height="60" fill="white"/>
</clipPath>
</defs>
</svg>
