<svg width="30" height="30" viewBox="0 0 30 30" fill="none" xmlns="http://www.w3.org/2000/svg">
<path fill-rule="evenodd" clip-rule="evenodd" d="M10.6366 7.48926L4.07654 13.8034C4.28355 15.5469 4.61039 17.179 5.68833 18.0928L14.584 25.3224L15.6602 26.1505C17.2806 27.3968 18.8154 25.655 17.5835 24.3675C17.5663 24.3487 17.5475 24.3298 17.5287 24.3109C17.9445 24.6607 18.4116 24.7601 18.8205 24.6933C19.7205 24.5475 20.3365 23.5943 19.5084 22.7045C21.127 23.9972 22.5095 21.9382 21.2416 20.8084C22.655 21.2541 24.1949 19.4214 22.7268 17.8647C22.7166 17.8527 22.7045 17.839 22.6926 17.827L19.0121 12.3478L14.0758 9.18473L10.6366 7.48926Z" fill="#F7BEAF"/>
<path fill-rule="evenodd" clip-rule="evenodd" d="M14.4504 25.4764C15.8192 24.0174 13.8225 22.3391 12.7189 23.3283L11.5366 24.4529C11.5229 24.4666 11.5109 24.4786 11.4972 24.4889C10.5048 25.4867 12.3083 27.7599 13.8002 26.169L14.4504 25.4764Z" fill="#FFDECF"/>
<path fill-rule="evenodd" clip-rule="evenodd" d="M10.6573 21.2929L9.40828 22.6027L9.40313 22.6096C8.77688 23.2748 9.21147 24.2948 9.95239 24.6926C10.4109 24.9394 10.9859 24.9497 11.4974 24.4885L12.7191 23.3279L12.8902 23.1668C14.2283 21.8947 12.2965 19.6969 10.789 21.1541L10.6573 21.2929Z" fill="#FFDECF"/>
<path fill-rule="evenodd" clip-rule="evenodd" d="M8.42624 19.4992L7.25588 20.7421L7.09164 20.9187C5.9367 22.1445 8.00536 24.0749 9.19792 22.8234L9.40323 22.6108C10.3202 21.5997 10.194 21.7505 10.7891 21.1553L11.1895 20.7353C12.5669 19.2901 10.4144 17.3871 9.10375 18.7809L8.42624 19.4992Z" fill="#FFDECF"/>
<path fill-rule="evenodd" clip-rule="evenodd" d="M5.68886 18.0941L5.29189 18.5244C4.0702 19.8514 5.89078 21.9669 7.25613 20.7429L8.42649 19.4999C9.5335 18.2467 7.60348 16.0163 6.08408 17.6655L5.68886 18.0941Z" fill="#FFDECF"/>
<path fill-rule="evenodd" clip-rule="evenodd" d="M7.36543 3.76565L1.93291 8.99631L0.38779 10.4827C-0.115238 10.9661 -0.130648 11.7736 0.351872 12.2776L2.65666 14.6812C2.79013 14.8201 3.01425 14.8252 3.15459 14.6915L4.07685 13.8035L10.6369 7.48934L11.4514 6.70412C11.5917 6.57041 11.5968 6.34582 11.4617 6.20526L9.15687 3.80168C8.67435 3.2976 7.86845 3.28219 7.36543 3.76565Z" fill="#F15060"/>
<path fill-rule="evenodd" clip-rule="evenodd" d="M14.0762 9.18422L12.87 10.1186L11.7338 10.9963C8.86443 13.2182 11.2444 15.4126 12.9469 14.66L14.8616 13.5063L16.0474 13.2354L17.6968 12.8582L21.1941 16.3368L22.693 17.8266C23.6358 17.4734 24.9687 16.4551 26.4077 14.1371L19.1118 7.11328L17.8012 8.16076C17.5856 8.33221 17.6506 8.29963 17.3786 8.29107C16.3947 8.2602 15.144 8.35793 14.4099 8.92541L14.0762 9.18422Z" fill="#FFDECF"/>
<path d="M21.2414 21.2613C21.131 21.2613 21.0203 21.2211 20.9331 21.1399L19.1091 19.4409C18.9261 19.2704 18.9158 18.9838 19.0862 18.8006C19.2565 18.6175 19.543 18.6072 19.7261 18.7776L21.55 20.4766C21.733 20.6471 21.7433 20.9338 21.573 21.1169C21.4838 21.2128 21.3628 21.2613 21.2414 21.2613Z" fill="#FFDECF"/>
<path d="M19.5083 23.1575C19.3979 23.1575 19.2871 23.1173 19.1999 23.0361L17.3742 21.3354C17.1912 21.1649 17.181 20.8783 17.3514 20.6952C17.5216 20.5121 17.8081 20.5017 17.9912 20.6722L19.8169 22.3729C19.9999 22.5434 20.0101 22.83 19.8397 23.0132C19.7505 23.109 19.6295 23.1575 19.5083 23.1575Z" fill="#FFDECF"/>
<path d="M17.5887 24.8238C17.4785 24.8238 17.3678 24.7837 17.2806 24.7026L16.3516 23.8386C16.1684 23.6682 16.1579 23.3816 16.3281 23.1983C16.4983 23.0151 16.7848 23.0046 16.968 23.1749L17.8971 24.0389C18.0802 24.2093 18.0907 24.4958 17.9205 24.6791C17.8313 24.7752 17.7102 24.8238 17.5887 24.8238Z" fill="#FFDECF"/>
<path fill-rule="evenodd" clip-rule="evenodd" d="M19.1114 7.11411L25.2163 12.9911L26.4072 14.138L26.8452 14.5597C26.9855 14.6934 27.2097 14.6883 27.3431 14.5494L28.546 13.2945L29.6479 12.1458C30.1304 11.6418 30.115 10.8343 29.612 10.3508L28.546 9.32561L22.6344 3.63382C22.1314 3.15036 21.3255 3.16577 20.843 3.66979L18.5382 6.07337C18.403 6.21393 18.4082 6.43852 18.5484 6.57224L19.1114 7.11411Z" fill="#F3C12C"/>
</svg>
