<svg width="30" height="30" viewBox="0 0 30 30" fill="none" xmlns="http://www.w3.org/2000/svg">
<g clip-path="url(#clip0_1_2002)">
<path d="M20.069 1.03011V4.40849H18.042V2.04363H11.9582V4.40849H9.93115V1.03011C9.93115 0.470656 10.3845 0.0166016 10.9447 0.0166016H19.0555C19.6156 0.0166016 20.069 0.470656 20.069 1.03011Z" fill="#F3C12C"/>
<path d="M0 12.623V28.9697C0 28.9697 0.453784 29.9832 1.01351 29.9832H28.9865C29.5462 29.9832 30 29.5294 30 28.9697V12.6231L0 12.623Z" fill="#81314E"/>
<path d="M2.67101 15.1312H27.1263C28.595 15.1312 29.808 14.0395 30 12.6234V5.0848C30 4.52507 29.5462 4.07129 28.9865 4.07129H1.01351C0.453784 4.07129 0 4.52507 0 5.0848V12.6233C0.191959 14.0395 1.20223 15.1312 2.67101 15.1312Z" fill="#F15060"/>
<path d="M16.3515 13.1934H13.6488C13.089 13.1934 12.6353 13.6471 12.6353 14.2069V17.9231C12.6353 18.4829 13.089 18.9367 13.6488 18.9367H16.3515C16.9112 18.9367 17.365 18.4829 17.365 17.9231V14.2069C17.365 13.6471 16.9112 13.1934 16.3515 13.1934Z" fill="#F3C12C"/>
</g>
<defs>
<clipPath id="clip0_1_2002">
<rect width="30" height="30" fill="white"/>
</clipPath>
</defs>
</svg>
